<mxfile host="Electron" modified="2023-11-21T13:41:34.456Z" agent="Mozilla/5.0 (Windows NT 10.0; Win64; x64) AppleWebKit/537.36 (KHTML, like Gecko) draw.io/22.0.2 Chrome/114.0.5735.289 Electron/25.8.4 Safari/537.36" etag="Ypg4DMbZOcyycIfAu2zR" version="22.0.2" type="device" pages="4">
  <diagram name="Employee Service" id="QN0JCc_7jaO9GJbMPCQC">
    <mxGraphModel dx="1293" dy="649" grid="1" gridSize="10" guides="1" tooltips="1" connect="1" arrows="1" fold="1" page="1" pageScale="1" pageWidth="827" pageHeight="1169" math="0" shadow="0">
      <root>
        <mxCell id="0" />
        <mxCell id="1" parent="0" />
        <mxCell id="_AEh2Ft7llkHRnbit-a0-1" value="Actor" style="shape=umlActor;verticalLabelPosition=bottom;verticalAlign=top;html=1;outlineConnect=0;" parent="1" vertex="1">
          <mxGeometry x="40" y="70" width="30" height="50" as="geometry" />
        </mxCell>
        <mxCell id="_AEh2Ft7llkHRnbit-a0-2" value="Employee Controller" style="rounded=0;whiteSpace=wrap;html=1;" parent="1" vertex="1">
          <mxGeometry x="140" y="80" width="140" height="40" as="geometry" />
        </mxCell>
        <mxCell id="_AEh2Ft7llkHRnbit-a0-3" value="Employee Service" style="rounded=0;whiteSpace=wrap;html=1;" parent="1" vertex="1">
          <mxGeometry x="340" y="80" width="140" height="40" as="geometry" />
        </mxCell>
        <mxCell id="_AEh2Ft7llkHRnbit-a0-4" value="Employee Repository" style="rounded=0;whiteSpace=wrap;html=1;" parent="1" vertex="1">
          <mxGeometry x="540" y="80" width="140" height="40" as="geometry" />
        </mxCell>
        <mxCell id="_AEh2Ft7llkHRnbit-a0-5" value="MySql DB" style="shape=cylinder3;whiteSpace=wrap;html=1;boundedLbl=1;backgroundOutline=1;size=15;" parent="1" vertex="1">
          <mxGeometry x="740" y="80" width="70" height="70" as="geometry" />
        </mxCell>
        <mxCell id="_AEh2Ft7llkHRnbit-a0-17" value="" style="html=1;points=[[0,0,0,0,5],[0,1,0,0,-5],[1,0,0,0,5],[1,1,0,0,-5]];perimeter=orthogonalPerimeter;outlineConnect=0;targetShapes=umlLifeline;portConstraint=eastwest;newEdgeStyle={&quot;curved&quot;:0,&quot;rounded&quot;:0};" parent="1" vertex="1">
          <mxGeometry x="200" y="150" width="10" height="100" as="geometry" />
        </mxCell>
        <mxCell id="_AEh2Ft7llkHRnbit-a0-18" value="" style="html=1;points=[[0,0,0,0,5],[0,1,0,0,-5],[1,0,0,0,5],[1,1,0,0,-5]];perimeter=orthogonalPerimeter;outlineConnect=0;targetShapes=umlLifeline;portConstraint=eastwest;newEdgeStyle={&quot;curved&quot;:0,&quot;rounded&quot;:0};" parent="1" vertex="1">
          <mxGeometry x="205" y="180" width="10" height="40" as="geometry" />
        </mxCell>
        <mxCell id="_AEh2Ft7llkHRnbit-a0-20" value="" style="html=1;points=[[0,0,0,0,5],[0,1,0,0,-5],[1,0,0,0,5],[1,1,0,0,-5]];perimeter=orthogonalPerimeter;outlineConnect=0;targetShapes=umlLifeline;portConstraint=eastwest;newEdgeStyle={&quot;curved&quot;:0,&quot;rounded&quot;:0};" parent="1" vertex="1">
          <mxGeometry x="400" y="150" width="10" height="100" as="geometry" />
        </mxCell>
        <mxCell id="_AEh2Ft7llkHRnbit-a0-21" value="" style="html=1;points=[[0,0,0,0,5],[0,1,0,0,-5],[1,0,0,0,5],[1,1,0,0,-5]];perimeter=orthogonalPerimeter;outlineConnect=0;targetShapes=umlLifeline;portConstraint=eastwest;newEdgeStyle={&quot;curved&quot;:0,&quot;rounded&quot;:0};" parent="1" vertex="1">
          <mxGeometry x="600" y="150" width="10" height="100" as="geometry" />
        </mxCell>
        <mxCell id="_AEh2Ft7llkHRnbit-a0-22" value="" style="endArrow=classic;html=1;rounded=0;" parent="1" edge="1">
          <mxGeometry width="50" height="50" relative="1" as="geometry">
            <mxPoint x="210" y="169" as="sourcePoint" />
            <mxPoint x="400" y="169" as="targetPoint" />
            <Array as="points" />
          </mxGeometry>
        </mxCell>
        <mxCell id="_AEh2Ft7llkHRnbit-a0-23" value="" style="endArrow=classic;html=1;rounded=0;" parent="1" edge="1">
          <mxGeometry width="50" height="50" relative="1" as="geometry">
            <mxPoint x="400" y="230" as="sourcePoint" />
            <mxPoint x="210" y="230" as="targetPoint" />
          </mxGeometry>
        </mxCell>
        <mxCell id="_AEh2Ft7llkHRnbit-a0-24" value="" style="endArrow=classic;html=1;rounded=0;" parent="1" edge="1">
          <mxGeometry width="50" height="50" relative="1" as="geometry">
            <mxPoint x="780" y="230" as="sourcePoint" />
            <mxPoint x="610" y="230" as="targetPoint" />
          </mxGeometry>
        </mxCell>
        <mxCell id="_AEh2Ft7llkHRnbit-a0-25" value="" style="endArrow=classic;html=1;rounded=0;exitX=1;exitY=0.308;exitDx=0;exitDy=0;exitPerimeter=0;" parent="1" edge="1">
          <mxGeometry width="50" height="50" relative="1" as="geometry">
            <mxPoint x="410" y="169.99999999999997" as="sourcePoint" />
            <mxPoint x="600" y="169.99999999999997" as="targetPoint" />
          </mxGeometry>
        </mxCell>
        <mxCell id="_AEh2Ft7llkHRnbit-a0-28" value="" style="endArrow=none;dashed=1;html=1;rounded=0;" parent="1" edge="1">
          <mxGeometry width="50" height="50" relative="1" as="geometry">
            <mxPoint x="780" y="840" as="sourcePoint" />
            <mxPoint x="780" y="150" as="targetPoint" />
          </mxGeometry>
        </mxCell>
        <mxCell id="_AEh2Ft7llkHRnbit-a0-30" value="" style="endArrow=classic;html=1;rounded=0;" parent="1" edge="1">
          <mxGeometry width="50" height="50" relative="1" as="geometry">
            <mxPoint x="610" y="170" as="sourcePoint" />
            <mxPoint x="780" y="170" as="targetPoint" />
            <Array as="points">
              <mxPoint x="690" y="170" />
            </Array>
          </mxGeometry>
        </mxCell>
        <mxCell id="_AEh2Ft7llkHRnbit-a0-32" value="Adding Employee to DB" style="text;html=1;strokeColor=none;fillColor=none;align=center;verticalAlign=middle;whiteSpace=wrap;rounded=0;" parent="1" vertex="1">
          <mxGeometry x="220" y="140" width="160" height="30" as="geometry" />
        </mxCell>
        <mxCell id="_AEh2Ft7llkHRnbit-a0-33" value="saveEmployee()" style="text;html=1;strokeColor=none;fillColor=none;align=center;verticalAlign=middle;whiteSpace=wrap;rounded=0;" parent="1" vertex="1">
          <mxGeometry x="450" y="140" width="110" height="30" as="geometry" />
        </mxCell>
        <mxCell id="_AEh2Ft7llkHRnbit-a0-34" value="save()" style="text;html=1;strokeColor=none;fillColor=none;align=center;verticalAlign=middle;whiteSpace=wrap;rounded=0;" parent="1" vertex="1">
          <mxGeometry x="650" y="140" width="60" height="30" as="geometry" />
        </mxCell>
        <mxCell id="_AEh2Ft7llkHRnbit-a0-36" value="Response" style="text;html=1;strokeColor=none;fillColor=none;align=center;verticalAlign=middle;whiteSpace=wrap;rounded=0;" parent="1" vertex="1">
          <mxGeometry x="270" y="200" width="60" height="30" as="geometry" />
        </mxCell>
        <mxCell id="_AEh2Ft7llkHRnbit-a0-37" value="Response" style="text;html=1;strokeColor=none;fillColor=none;align=center;verticalAlign=middle;whiteSpace=wrap;rounded=0;" parent="1" vertex="1">
          <mxGeometry x="475" y="210" width="60" height="30" as="geometry" />
        </mxCell>
        <mxCell id="_AEh2Ft7llkHRnbit-a0-38" value="Response" style="text;html=1;strokeColor=none;fillColor=none;align=center;verticalAlign=middle;whiteSpace=wrap;rounded=0;" parent="1" vertex="1">
          <mxGeometry x="660" y="200" width="60" height="30" as="geometry" />
        </mxCell>
        <mxCell id="_AEh2Ft7llkHRnbit-a0-42" value="" style="html=1;points=[[0,0,0,0,5],[0,1,0,0,-5],[1,0,0,0,5],[1,1,0,0,-5]];perimeter=orthogonalPerimeter;outlineConnect=0;targetShapes=umlLifeline;portConstraint=eastwest;newEdgeStyle={&quot;curved&quot;:0,&quot;rounded&quot;:0};" parent="1" vertex="1">
          <mxGeometry x="600" y="272.5" width="10" height="95" as="geometry" />
        </mxCell>
        <mxCell id="_AEh2Ft7llkHRnbit-a0-44" value="" style="endArrow=classic;html=1;rounded=0;" parent="1" source="_AEh2Ft7llkHRnbit-a0-39" edge="1">
          <mxGeometry width="50" height="50" relative="1" as="geometry">
            <mxPoint x="220" y="290" as="sourcePoint" />
            <mxPoint x="400" y="290" as="targetPoint" />
          </mxGeometry>
        </mxCell>
        <mxCell id="_AEh2Ft7llkHRnbit-a0-45" value="" style="endArrow=classic;html=1;rounded=0;" parent="1" source="_AEh2Ft7llkHRnbit-a0-43" edge="1">
          <mxGeometry width="50" height="50" relative="1" as="geometry">
            <mxPoint x="400" y="360.25" as="sourcePoint" />
            <mxPoint x="210" y="349.75" as="targetPoint" />
          </mxGeometry>
        </mxCell>
        <mxCell id="_AEh2Ft7llkHRnbit-a0-46" value="" style="endArrow=classic;html=1;rounded=0;entryX=0;entryY=0.214;entryDx=0;entryDy=0;entryPerimeter=0;" parent="1" edge="1">
          <mxGeometry width="50" height="50" relative="1" as="geometry">
            <mxPoint x="410" y="290.00000000000006" as="sourcePoint" />
            <mxPoint x="600" y="290.00000000000006" as="targetPoint" />
          </mxGeometry>
        </mxCell>
        <mxCell id="_AEh2Ft7llkHRnbit-a0-47" value="" style="endArrow=classic;html=1;rounded=0;" parent="1" edge="1">
          <mxGeometry width="50" height="50" relative="1" as="geometry">
            <mxPoint x="610" y="290" as="sourcePoint" />
            <mxPoint x="780" y="290" as="targetPoint" />
            <Array as="points">
              <mxPoint x="660" y="290" />
            </Array>
          </mxGeometry>
        </mxCell>
        <mxCell id="_AEh2Ft7llkHRnbit-a0-48" value="" style="endArrow=classic;html=1;rounded=0;entryX=1;entryY=1;entryDx=0;entryDy=-5;entryPerimeter=0;" parent="1" edge="1">
          <mxGeometry width="50" height="50" relative="1" as="geometry">
            <mxPoint x="600" y="350" as="sourcePoint" />
            <mxPoint x="410" y="350" as="targetPoint" />
          </mxGeometry>
        </mxCell>
        <mxCell id="_AEh2Ft7llkHRnbit-a0-50" value="" style="endArrow=classic;html=1;rounded=0;" parent="1" edge="1">
          <mxGeometry width="50" height="50" relative="1" as="geometry">
            <mxPoint x="780" y="350" as="sourcePoint" />
            <mxPoint x="610" y="350" as="targetPoint" />
          </mxGeometry>
        </mxCell>
        <mxCell id="_AEh2Ft7llkHRnbit-a0-51" value="Response" style="text;html=1;strokeColor=none;fillColor=none;align=center;verticalAlign=middle;whiteSpace=wrap;rounded=0;" parent="1" vertex="1">
          <mxGeometry x="270" y="320" width="60" height="30" as="geometry" />
        </mxCell>
        <mxCell id="_AEh2Ft7llkHRnbit-a0-52" value="Response" style="text;html=1;strokeColor=none;fillColor=none;align=center;verticalAlign=middle;whiteSpace=wrap;rounded=0;" parent="1" vertex="1">
          <mxGeometry x="480" y="320" width="60" height="30" as="geometry" />
        </mxCell>
        <mxCell id="_AEh2Ft7llkHRnbit-a0-54" value="Get Employee by ID" style="text;html=1;strokeColor=none;fillColor=none;align=center;verticalAlign=middle;whiteSpace=wrap;rounded=0;" parent="1" vertex="1">
          <mxGeometry x="235" y="270" width="115" height="20" as="geometry" />
        </mxCell>
        <mxCell id="_AEh2Ft7llkHRnbit-a0-55" value="getEmployeeById()" style="text;html=1;strokeColor=none;fillColor=none;align=center;verticalAlign=middle;whiteSpace=wrap;rounded=0;" parent="1" vertex="1">
          <mxGeometry x="440" y="260" width="130" height="30" as="geometry" />
        </mxCell>
        <mxCell id="_AEh2Ft7llkHRnbit-a0-56" value="Response" style="text;html=1;strokeColor=none;fillColor=none;align=center;verticalAlign=middle;whiteSpace=wrap;rounded=0;" parent="1" vertex="1">
          <mxGeometry x="660" y="320" width="60" height="30" as="geometry" />
        </mxCell>
        <mxCell id="_AEh2Ft7llkHRnbit-a0-57" value="" style="endArrow=none;dashed=1;html=1;rounded=0;" parent="1" edge="1">
          <mxGeometry width="50" height="50" relative="1" as="geometry">
            <mxPoint x="204.5" y="150" as="sourcePoint" />
            <mxPoint x="204.5" y="120" as="targetPoint" />
          </mxGeometry>
        </mxCell>
        <mxCell id="_AEh2Ft7llkHRnbit-a0-59" value="" style="endArrow=none;dashed=1;html=1;rounded=0;" parent="1" edge="1">
          <mxGeometry width="50" height="50" relative="1" as="geometry">
            <mxPoint x="404.5" y="150" as="sourcePoint" />
            <mxPoint x="404.5" y="120" as="targetPoint" />
          </mxGeometry>
        </mxCell>
        <mxCell id="_AEh2Ft7llkHRnbit-a0-60" value="" style="endArrow=none;dashed=1;html=1;rounded=0;" parent="1" edge="1">
          <mxGeometry width="50" height="50" relative="1" as="geometry">
            <mxPoint x="604.5" y="150" as="sourcePoint" />
            <mxPoint x="604.5" y="120" as="targetPoint" />
          </mxGeometry>
        </mxCell>
        <mxCell id="_AEh2Ft7llkHRnbit-a0-61" value="Employee Added Successfully" style="text;html=1;strokeColor=none;fillColor=none;align=center;verticalAlign=middle;whiteSpace=wrap;rounded=0;" parent="1" vertex="1">
          <mxGeometry x="225" y="230" width="170" height="30" as="geometry" />
        </mxCell>
        <mxCell id="_AEh2Ft7llkHRnbit-a0-63" value="" style="endArrow=none;dashed=1;html=1;rounded=0;" parent="1" source="_AEh2Ft7llkHRnbit-a0-39" edge="1">
          <mxGeometry width="50" height="50" relative="1" as="geometry">
            <mxPoint x="204.5" y="340" as="sourcePoint" />
            <mxPoint x="204.5" y="280" as="targetPoint" />
          </mxGeometry>
        </mxCell>
        <mxCell id="_AEh2Ft7llkHRnbit-a0-64" value="" style="endArrow=none;dashed=1;html=1;rounded=0;" parent="1" source="_AEh2Ft7llkHRnbit-a0-43" edge="1">
          <mxGeometry width="50" height="50" relative="1" as="geometry">
            <mxPoint x="404.5" y="340" as="sourcePoint" />
            <mxPoint x="404.5" y="280" as="targetPoint" />
            <Array as="points" />
          </mxGeometry>
        </mxCell>
        <mxCell id="_AEh2Ft7llkHRnbit-a0-67" value="Client - Postman" style="text;html=1;strokeColor=none;fillColor=none;align=center;verticalAlign=middle;whiteSpace=wrap;rounded=0;" parent="1" vertex="1">
          <mxGeometry x="10" y="140" width="110" height="30" as="geometry" />
        </mxCell>
        <mxCell id="_AEh2Ft7llkHRnbit-a0-68" value="" style="endArrow=classic;html=1;rounded=0;" parent="1" edge="1">
          <mxGeometry width="50" height="50" relative="1" as="geometry">
            <mxPoint x="55" y="190" as="sourcePoint" />
            <mxPoint x="200" y="190" as="targetPoint" />
          </mxGeometry>
        </mxCell>
        <mxCell id="_AEh2Ft7llkHRnbit-a0-69" value="Request" style="text;html=1;strokeColor=none;fillColor=none;align=center;verticalAlign=middle;whiteSpace=wrap;rounded=0;" parent="1" vertex="1">
          <mxGeometry x="100" y="170" width="60" height="20" as="geometry" />
        </mxCell>
        <mxCell id="_AEh2Ft7llkHRnbit-a0-73" value="Employee Fetched Successfully" style="text;html=1;strokeColor=none;fillColor=none;align=center;verticalAlign=middle;whiteSpace=wrap;rounded=0;" parent="1" vertex="1">
          <mxGeometry x="220" y="350" width="180" height="30" as="geometry" />
        </mxCell>
        <mxCell id="vxAgJUTMDRlx3121qzaJ-3" value="" style="endArrow=classic;html=1;rounded=0;" parent="1" edge="1">
          <mxGeometry width="50" height="50" relative="1" as="geometry">
            <mxPoint x="600" y="230" as="sourcePoint" />
            <mxPoint x="410" y="230" as="targetPoint" />
          </mxGeometry>
        </mxCell>
        <mxCell id="vxAgJUTMDRlx3121qzaJ-5" value="" style="endArrow=none;dashed=1;html=1;rounded=0;" parent="1" target="_AEh2Ft7llkHRnbit-a0-39" edge="1">
          <mxGeometry width="50" height="50" relative="1" as="geometry">
            <mxPoint x="204.5" y="340" as="sourcePoint" />
            <mxPoint x="204.5" y="280" as="targetPoint" />
          </mxGeometry>
        </mxCell>
        <mxCell id="_AEh2Ft7llkHRnbit-a0-39" value="" style="html=1;points=[[0,0,0,0,5],[0,1,0,0,-5],[1,0,0,0,5],[1,1,0,0,-5]];perimeter=orthogonalPerimeter;outlineConnect=0;targetShapes=umlLifeline;portConstraint=eastwest;newEdgeStyle={&quot;curved&quot;:0,&quot;rounded&quot;:0};" parent="1" vertex="1">
          <mxGeometry x="200" y="270" width="10" height="100" as="geometry" />
        </mxCell>
        <mxCell id="vxAgJUTMDRlx3121qzaJ-6" value="" style="endArrow=none;dashed=1;html=1;rounded=0;" parent="1" target="_AEh2Ft7llkHRnbit-a0-43" edge="1">
          <mxGeometry width="50" height="50" relative="1" as="geometry">
            <mxPoint x="404.5" y="340" as="sourcePoint" />
            <mxPoint x="404.5" y="280" as="targetPoint" />
            <Array as="points">
              <mxPoint x="404.5" y="310" />
            </Array>
          </mxGeometry>
        </mxCell>
        <mxCell id="_AEh2Ft7llkHRnbit-a0-43" value="" style="html=1;points=[[0,0,0,0,5],[0,1,0,0,-5],[1,0,0,0,5],[1,1,0,0,-5]];perimeter=orthogonalPerimeter;outlineConnect=0;targetShapes=umlLifeline;portConstraint=eastwest;newEdgeStyle={&quot;curved&quot;:0,&quot;rounded&quot;:0};" parent="1" vertex="1">
          <mxGeometry x="400" y="270" width="10" height="100" as="geometry" />
        </mxCell>
        <mxCell id="vxAgJUTMDRlx3121qzaJ-9" value="" style="html=1;points=[[0,0,0,0,5],[0,1,0,0,-5],[1,0,0,0,5],[1,1,0,0,-5]];perimeter=orthogonalPerimeter;outlineConnect=0;targetShapes=umlLifeline;portConstraint=eastwest;newEdgeStyle={&quot;curved&quot;:0,&quot;rounded&quot;:0};" parent="1" vertex="1">
          <mxGeometry x="205" y="302.5" width="10" height="40" as="geometry" />
        </mxCell>
        <mxCell id="vxAgJUTMDRlx3121qzaJ-15" value="" style="endArrow=none;dashed=1;html=1;rounded=0;" parent="1" edge="1">
          <mxGeometry width="50" height="50" relative="1" as="geometry">
            <mxPoint x="205" y="270" as="sourcePoint" />
            <mxPoint x="205" y="250" as="targetPoint" />
          </mxGeometry>
        </mxCell>
        <mxCell id="vxAgJUTMDRlx3121qzaJ-16" value="" style="endArrow=none;dashed=1;html=1;rounded=0;" parent="1" edge="1">
          <mxGeometry width="50" height="50" relative="1" as="geometry">
            <mxPoint x="604.5" y="270" as="sourcePoint" />
            <mxPoint x="604.5" y="250" as="targetPoint" />
          </mxGeometry>
        </mxCell>
        <mxCell id="vxAgJUTMDRlx3121qzaJ-17" value="" style="html=1;points=[[0,0,0,0,5],[0,1,0,0,-5],[1,0,0,0,5],[1,1,0,0,-5]];perimeter=orthogonalPerimeter;outlineConnect=0;targetShapes=umlLifeline;portConstraint=eastwest;newEdgeStyle={&quot;curved&quot;:0,&quot;rounded&quot;:0};" parent="1" vertex="1">
          <mxGeometry x="200" y="390" width="10" height="100" as="geometry" />
        </mxCell>
        <mxCell id="vxAgJUTMDRlx3121qzaJ-18" value="" style="html=1;points=[[0,0,0,0,5],[0,1,0,0,-5],[1,0,0,0,5],[1,1,0,0,-5]];perimeter=orthogonalPerimeter;outlineConnect=0;targetShapes=umlLifeline;portConstraint=eastwest;newEdgeStyle={&quot;curved&quot;:0,&quot;rounded&quot;:0};" parent="1" vertex="1">
          <mxGeometry x="205" y="422.5" width="10" height="40" as="geometry" />
        </mxCell>
        <mxCell id="vxAgJUTMDRlx3121qzaJ-19" value="" style="html=1;points=[[0,0,0,0,5],[0,1,0,0,-5],[1,0,0,0,5],[1,1,0,0,-5]];perimeter=orthogonalPerimeter;outlineConnect=0;targetShapes=umlLifeline;portConstraint=eastwest;newEdgeStyle={&quot;curved&quot;:0,&quot;rounded&quot;:0};" parent="1" vertex="1">
          <mxGeometry x="200" y="510" width="10" height="100" as="geometry" />
        </mxCell>
        <mxCell id="vxAgJUTMDRlx3121qzaJ-20" value="" style="html=1;points=[[0,0,0,0,5],[0,1,0,0,-5],[1,0,0,0,5],[1,1,0,0,-5]];perimeter=orthogonalPerimeter;outlineConnect=0;targetShapes=umlLifeline;portConstraint=eastwest;newEdgeStyle={&quot;curved&quot;:0,&quot;rounded&quot;:0};" parent="1" vertex="1">
          <mxGeometry x="205" y="542.5" width="10" height="40" as="geometry" />
        </mxCell>
        <mxCell id="vxAgJUTMDRlx3121qzaJ-21" value="" style="html=1;points=[[0,0,0,0,5],[0,1,0,0,-5],[1,0,0,0,5],[1,1,0,0,-5]];perimeter=orthogonalPerimeter;outlineConnect=0;targetShapes=umlLifeline;portConstraint=eastwest;newEdgeStyle={&quot;curved&quot;:0,&quot;rounded&quot;:0};" parent="1" vertex="1">
          <mxGeometry x="400" y="390" width="10" height="100" as="geometry" />
        </mxCell>
        <mxCell id="vxAgJUTMDRlx3121qzaJ-22" value="" style="html=1;points=[[0,0,0,0,5],[0,1,0,0,-5],[1,0,0,0,5],[1,1,0,0,-5]];perimeter=orthogonalPerimeter;outlineConnect=0;targetShapes=umlLifeline;portConstraint=eastwest;newEdgeStyle={&quot;curved&quot;:0,&quot;rounded&quot;:0};" parent="1" vertex="1">
          <mxGeometry x="400" y="510" width="10" height="100" as="geometry" />
        </mxCell>
        <mxCell id="vxAgJUTMDRlx3121qzaJ-23" value="" style="html=1;points=[[0,0,0,0,5],[0,1,0,0,-5],[1,0,0,0,5],[1,1,0,0,-5]];perimeter=orthogonalPerimeter;outlineConnect=0;targetShapes=umlLifeline;portConstraint=eastwest;newEdgeStyle={&quot;curved&quot;:0,&quot;rounded&quot;:0};" parent="1" vertex="1">
          <mxGeometry x="600" y="390" width="10" height="100" as="geometry" />
        </mxCell>
        <mxCell id="vxAgJUTMDRlx3121qzaJ-24" value="" style="html=1;points=[[0,0,0,0,5],[0,1,0,0,-5],[1,0,0,0,5],[1,1,0,0,-5]];perimeter=orthogonalPerimeter;outlineConnect=0;targetShapes=umlLifeline;portConstraint=eastwest;newEdgeStyle={&quot;curved&quot;:0,&quot;rounded&quot;:0};" parent="1" vertex="1">
          <mxGeometry x="600" y="510" width="10" height="100" as="geometry" />
        </mxCell>
        <mxCell id="vxAgJUTMDRlx3121qzaJ-25" value="" style="endArrow=classic;html=1;rounded=0;exitX=1;exitY=0.308;exitDx=0;exitDy=0;exitPerimeter=0;" parent="1" edge="1">
          <mxGeometry width="50" height="50" relative="1" as="geometry">
            <mxPoint x="210" y="410" as="sourcePoint" />
            <mxPoint x="400" y="410" as="targetPoint" />
          </mxGeometry>
        </mxCell>
        <mxCell id="vxAgJUTMDRlx3121qzaJ-26" value="" style="endArrow=classic;html=1;rounded=0;exitX=1;exitY=0.308;exitDx=0;exitDy=0;exitPerimeter=0;" parent="1" edge="1">
          <mxGeometry width="50" height="50" relative="1" as="geometry">
            <mxPoint x="410" y="410" as="sourcePoint" />
            <mxPoint x="600" y="410" as="targetPoint" />
          </mxGeometry>
        </mxCell>
        <mxCell id="vxAgJUTMDRlx3121qzaJ-27" value="" style="endArrow=classic;html=1;rounded=0;exitX=1;exitY=0.308;exitDx=0;exitDy=0;exitPerimeter=0;" parent="1" edge="1">
          <mxGeometry width="50" height="50" relative="1" as="geometry">
            <mxPoint x="610" y="410" as="sourcePoint" />
            <mxPoint x="780" y="410" as="targetPoint" />
          </mxGeometry>
        </mxCell>
        <mxCell id="vxAgJUTMDRlx3121qzaJ-28" value="" style="endArrow=classic;html=1;rounded=0;exitX=1;exitY=0.308;exitDx=0;exitDy=0;exitPerimeter=0;" parent="1" edge="1">
          <mxGeometry width="50" height="50" relative="1" as="geometry">
            <mxPoint x="210" y="530" as="sourcePoint" />
            <mxPoint x="400" y="530" as="targetPoint" />
          </mxGeometry>
        </mxCell>
        <mxCell id="vxAgJUTMDRlx3121qzaJ-29" value="" style="endArrow=classic;html=1;rounded=0;exitX=1;exitY=0.308;exitDx=0;exitDy=0;exitPerimeter=0;" parent="1" edge="1">
          <mxGeometry width="50" height="50" relative="1" as="geometry">
            <mxPoint x="410" y="530" as="sourcePoint" />
            <mxPoint x="600" y="530" as="targetPoint" />
          </mxGeometry>
        </mxCell>
        <mxCell id="vxAgJUTMDRlx3121qzaJ-30" value="" style="endArrow=classic;html=1;rounded=0;exitX=1;exitY=0.308;exitDx=0;exitDy=0;exitPerimeter=0;" parent="1" edge="1">
          <mxGeometry width="50" height="50" relative="1" as="geometry">
            <mxPoint x="610" y="530" as="sourcePoint" />
            <mxPoint x="780" y="530" as="targetPoint" />
          </mxGeometry>
        </mxCell>
        <mxCell id="vxAgJUTMDRlx3121qzaJ-31" value="" style="endArrow=classic;html=1;rounded=0;entryX=1;entryY=1;entryDx=0;entryDy=-5;entryPerimeter=0;" parent="1" edge="1">
          <mxGeometry width="50" height="50" relative="1" as="geometry">
            <mxPoint x="400" y="470" as="sourcePoint" />
            <mxPoint x="210" y="470" as="targetPoint" />
          </mxGeometry>
        </mxCell>
        <mxCell id="vxAgJUTMDRlx3121qzaJ-32" value="" style="endArrow=classic;html=1;rounded=0;entryX=1;entryY=1;entryDx=0;entryDy=-5;entryPerimeter=0;" parent="1" edge="1">
          <mxGeometry width="50" height="50" relative="1" as="geometry">
            <mxPoint x="600" y="470" as="sourcePoint" />
            <mxPoint x="410" y="470" as="targetPoint" />
          </mxGeometry>
        </mxCell>
        <mxCell id="vxAgJUTMDRlx3121qzaJ-33" value="" style="endArrow=classic;html=1;rounded=0;entryX=1;entryY=1;entryDx=0;entryDy=-5;entryPerimeter=0;" parent="1" edge="1">
          <mxGeometry width="50" height="50" relative="1" as="geometry">
            <mxPoint x="780" y="470" as="sourcePoint" />
            <mxPoint x="610" y="470" as="targetPoint" />
          </mxGeometry>
        </mxCell>
        <mxCell id="vxAgJUTMDRlx3121qzaJ-34" value="" style="endArrow=classic;html=1;rounded=0;entryX=1;entryY=1;entryDx=0;entryDy=-5;entryPerimeter=0;" parent="1" edge="1">
          <mxGeometry width="50" height="50" relative="1" as="geometry">
            <mxPoint x="400" y="590" as="sourcePoint" />
            <mxPoint x="210" y="590" as="targetPoint" />
          </mxGeometry>
        </mxCell>
        <mxCell id="vxAgJUTMDRlx3121qzaJ-35" value="" style="endArrow=classic;html=1;rounded=0;entryX=1;entryY=1;entryDx=0;entryDy=-5;entryPerimeter=0;" parent="1" edge="1">
          <mxGeometry width="50" height="50" relative="1" as="geometry">
            <mxPoint x="600" y="590" as="sourcePoint" />
            <mxPoint x="410" y="590" as="targetPoint" />
          </mxGeometry>
        </mxCell>
        <mxCell id="vxAgJUTMDRlx3121qzaJ-36" value="" style="endArrow=classic;html=1;rounded=0;entryX=1;entryY=1;entryDx=0;entryDy=-5;entryPerimeter=0;" parent="1" edge="1">
          <mxGeometry width="50" height="50" relative="1" as="geometry">
            <mxPoint x="780" y="590" as="sourcePoint" />
            <mxPoint x="610" y="590" as="targetPoint" />
          </mxGeometry>
        </mxCell>
        <mxCell id="vxAgJUTMDRlx3121qzaJ-37" value="Response" style="text;html=1;strokeColor=none;fillColor=none;align=center;verticalAlign=middle;whiteSpace=wrap;rounded=0;" parent="1" vertex="1">
          <mxGeometry x="270" y="560" width="60" height="30" as="geometry" />
        </mxCell>
        <mxCell id="vxAgJUTMDRlx3121qzaJ-38" value="Response" style="text;html=1;strokeColor=none;fillColor=none;align=center;verticalAlign=middle;whiteSpace=wrap;rounded=0;" parent="1" vertex="1">
          <mxGeometry x="270" y="440" width="60" height="30" as="geometry" />
        </mxCell>
        <mxCell id="vxAgJUTMDRlx3121qzaJ-39" value="Response" style="text;html=1;strokeColor=none;fillColor=none;align=center;verticalAlign=middle;whiteSpace=wrap;rounded=0;" parent="1" vertex="1">
          <mxGeometry x="475" y="440" width="60" height="30" as="geometry" />
        </mxCell>
        <mxCell id="vxAgJUTMDRlx3121qzaJ-40" value="Response" style="text;html=1;strokeColor=none;fillColor=none;align=center;verticalAlign=middle;whiteSpace=wrap;rounded=0;" parent="1" vertex="1">
          <mxGeometry x="660" y="440" width="60" height="30" as="geometry" />
        </mxCell>
        <mxCell id="vxAgJUTMDRlx3121qzaJ-41" value="Response" style="text;html=1;strokeColor=none;fillColor=none;align=center;verticalAlign=middle;whiteSpace=wrap;rounded=0;" parent="1" vertex="1">
          <mxGeometry x="660" y="560" width="60" height="30" as="geometry" />
        </mxCell>
        <mxCell id="vxAgJUTMDRlx3121qzaJ-42" value="Response" style="text;html=1;strokeColor=none;fillColor=none;align=center;verticalAlign=middle;whiteSpace=wrap;rounded=0;" parent="1" vertex="1">
          <mxGeometry x="475" y="560" width="60" height="30" as="geometry" />
        </mxCell>
        <mxCell id="vxAgJUTMDRlx3121qzaJ-43" value="" style="html=1;points=[[0,0,0,0,5],[0,1,0,0,-5],[1,0,0,0,5],[1,1,0,0,-5]];perimeter=orthogonalPerimeter;outlineConnect=0;targetShapes=umlLifeline;portConstraint=eastwest;newEdgeStyle={&quot;curved&quot;:0,&quot;rounded&quot;:0};" parent="1" vertex="1">
          <mxGeometry x="200" y="630" width="10" height="100" as="geometry" />
        </mxCell>
        <mxCell id="vxAgJUTMDRlx3121qzaJ-44" value="" style="html=1;points=[[0,0,0,0,5],[0,1,0,0,-5],[1,0,0,0,5],[1,1,0,0,-5]];perimeter=orthogonalPerimeter;outlineConnect=0;targetShapes=umlLifeline;portConstraint=eastwest;newEdgeStyle={&quot;curved&quot;:0,&quot;rounded&quot;:0};" parent="1" vertex="1">
          <mxGeometry x="205" y="662.5" width="10" height="40" as="geometry" />
        </mxCell>
        <mxCell id="vxAgJUTMDRlx3121qzaJ-45" value="" style="html=1;points=[[0,0,0,0,5],[0,1,0,0,-5],[1,0,0,0,5],[1,1,0,0,-5]];perimeter=orthogonalPerimeter;outlineConnect=0;targetShapes=umlLifeline;portConstraint=eastwest;newEdgeStyle={&quot;curved&quot;:0,&quot;rounded&quot;:0};" parent="1" vertex="1">
          <mxGeometry x="400" y="630" width="10" height="100" as="geometry" />
        </mxCell>
        <mxCell id="vxAgJUTMDRlx3121qzaJ-46" value="" style="html=1;points=[[0,0,0,0,5],[0,1,0,0,-5],[1,0,0,0,5],[1,1,0,0,-5]];perimeter=orthogonalPerimeter;outlineConnect=0;targetShapes=umlLifeline;portConstraint=eastwest;newEdgeStyle={&quot;curved&quot;:0,&quot;rounded&quot;:0};" parent="1" vertex="1">
          <mxGeometry x="600" y="630" width="10" height="100" as="geometry" />
        </mxCell>
        <mxCell id="vxAgJUTMDRlx3121qzaJ-47" value="" style="endArrow=none;dashed=1;html=1;rounded=0;" parent="1" edge="1">
          <mxGeometry width="50" height="50" relative="1" as="geometry">
            <mxPoint x="205" y="390" as="sourcePoint" />
            <mxPoint x="205" y="370" as="targetPoint" />
          </mxGeometry>
        </mxCell>
        <mxCell id="vxAgJUTMDRlx3121qzaJ-49" value="" style="endArrow=none;dashed=1;html=1;rounded=0;" parent="1" edge="1">
          <mxGeometry width="50" height="50" relative="1" as="geometry">
            <mxPoint x="404.5" y="390" as="sourcePoint" />
            <mxPoint x="404.5" y="370" as="targetPoint" />
          </mxGeometry>
        </mxCell>
        <mxCell id="vxAgJUTMDRlx3121qzaJ-50" value="" style="endArrow=none;dashed=1;html=1;rounded=0;" parent="1" edge="1">
          <mxGeometry width="50" height="50" relative="1" as="geometry">
            <mxPoint x="604.5" y="390" as="sourcePoint" />
            <mxPoint x="604.5" y="370" as="targetPoint" />
          </mxGeometry>
        </mxCell>
        <mxCell id="vxAgJUTMDRlx3121qzaJ-52" value="" style="endArrow=none;dashed=1;html=1;rounded=0;" parent="1" edge="1">
          <mxGeometry width="50" height="50" relative="1" as="geometry">
            <mxPoint x="404.5" y="510" as="sourcePoint" />
            <mxPoint x="404.5" y="490" as="targetPoint" />
          </mxGeometry>
        </mxCell>
        <mxCell id="vxAgJUTMDRlx3121qzaJ-53" value="" style="endArrow=none;dashed=1;html=1;rounded=0;" parent="1" edge="1">
          <mxGeometry width="50" height="50" relative="1" as="geometry">
            <mxPoint x="604.5" y="510" as="sourcePoint" />
            <mxPoint x="604.5" y="490" as="targetPoint" />
          </mxGeometry>
        </mxCell>
        <mxCell id="vxAgJUTMDRlx3121qzaJ-54" value="" style="endArrow=none;dashed=1;html=1;rounded=0;" parent="1" edge="1">
          <mxGeometry width="50" height="50" relative="1" as="geometry">
            <mxPoint x="205" y="510" as="sourcePoint" />
            <mxPoint x="205" y="490" as="targetPoint" />
          </mxGeometry>
        </mxCell>
        <mxCell id="vxAgJUTMDRlx3121qzaJ-55" value="" style="endArrow=none;dashed=1;html=1;rounded=0;" parent="1" edge="1">
          <mxGeometry width="50" height="50" relative="1" as="geometry">
            <mxPoint x="404.5" y="270" as="sourcePoint" />
            <mxPoint x="404.5" y="250" as="targetPoint" />
          </mxGeometry>
        </mxCell>
        <mxCell id="vxAgJUTMDRlx3121qzaJ-56" value="" style="endArrow=none;dashed=1;html=1;rounded=0;" parent="1" edge="1">
          <mxGeometry width="50" height="50" relative="1" as="geometry">
            <mxPoint x="205" y="630" as="sourcePoint" />
            <mxPoint x="205" y="610" as="targetPoint" />
          </mxGeometry>
        </mxCell>
        <mxCell id="vxAgJUTMDRlx3121qzaJ-57" value="" style="endArrow=none;dashed=1;html=1;rounded=0;" parent="1" edge="1">
          <mxGeometry width="50" height="50" relative="1" as="geometry">
            <mxPoint x="404.5" y="630" as="sourcePoint" />
            <mxPoint x="404.5" y="610" as="targetPoint" />
          </mxGeometry>
        </mxCell>
        <mxCell id="vxAgJUTMDRlx3121qzaJ-58" value="" style="endArrow=none;dashed=1;html=1;rounded=0;" parent="1" edge="1">
          <mxGeometry width="50" height="50" relative="1" as="geometry">
            <mxPoint x="604.5" y="630" as="sourcePoint" />
            <mxPoint x="604.5" y="610" as="targetPoint" />
          </mxGeometry>
        </mxCell>
        <mxCell id="vxAgJUTMDRlx3121qzaJ-59" value="" style="endArrow=classic;html=1;rounded=0;exitX=1;exitY=0.308;exitDx=0;exitDy=0;exitPerimeter=0;" parent="1" edge="1">
          <mxGeometry width="50" height="50" relative="1" as="geometry">
            <mxPoint x="210" y="650" as="sourcePoint" />
            <mxPoint x="400" y="650" as="targetPoint" />
          </mxGeometry>
        </mxCell>
        <mxCell id="vxAgJUTMDRlx3121qzaJ-60" value="" style="endArrow=classic;html=1;rounded=0;exitX=1;exitY=0.308;exitDx=0;exitDy=0;exitPerimeter=0;" parent="1" edge="1">
          <mxGeometry width="50" height="50" relative="1" as="geometry">
            <mxPoint x="410" y="650" as="sourcePoint" />
            <mxPoint x="600" y="650" as="targetPoint" />
          </mxGeometry>
        </mxCell>
        <mxCell id="vxAgJUTMDRlx3121qzaJ-61" value="" style="endArrow=classic;html=1;rounded=0;exitX=1;exitY=0.308;exitDx=0;exitDy=0;exitPerimeter=0;" parent="1" edge="1">
          <mxGeometry width="50" height="50" relative="1" as="geometry">
            <mxPoint x="610" y="650" as="sourcePoint" />
            <mxPoint x="780" y="650" as="targetPoint" />
          </mxGeometry>
        </mxCell>
        <mxCell id="vxAgJUTMDRlx3121qzaJ-62" value="" style="endArrow=classic;html=1;rounded=0;entryX=1;entryY=1;entryDx=0;entryDy=-5;entryPerimeter=0;" parent="1" edge="1">
          <mxGeometry width="50" height="50" relative="1" as="geometry">
            <mxPoint x="400" y="710" as="sourcePoint" />
            <mxPoint x="210" y="710" as="targetPoint" />
          </mxGeometry>
        </mxCell>
        <mxCell id="vxAgJUTMDRlx3121qzaJ-63" value="Response" style="text;html=1;strokeColor=none;fillColor=none;align=center;verticalAlign=middle;whiteSpace=wrap;rounded=0;" parent="1" vertex="1">
          <mxGeometry x="270" y="680" width="60" height="30" as="geometry" />
        </mxCell>
        <mxCell id="vxAgJUTMDRlx3121qzaJ-64" value="" style="endArrow=classic;html=1;rounded=0;entryX=1;entryY=1;entryDx=0;entryDy=-5;entryPerimeter=0;" parent="1" edge="1">
          <mxGeometry width="50" height="50" relative="1" as="geometry">
            <mxPoint x="600" y="710" as="sourcePoint" />
            <mxPoint x="410" y="710" as="targetPoint" />
          </mxGeometry>
        </mxCell>
        <mxCell id="vxAgJUTMDRlx3121qzaJ-65" value="Response" style="text;html=1;strokeColor=none;fillColor=none;align=center;verticalAlign=middle;whiteSpace=wrap;rounded=0;" parent="1" vertex="1">
          <mxGeometry x="470" y="680" width="60" height="30" as="geometry" />
        </mxCell>
        <mxCell id="vxAgJUTMDRlx3121qzaJ-66" value="" style="endArrow=classic;html=1;rounded=0;entryX=1;entryY=1;entryDx=0;entryDy=-5;entryPerimeter=0;" parent="1" edge="1">
          <mxGeometry width="50" height="50" relative="1" as="geometry">
            <mxPoint x="780" y="710" as="sourcePoint" />
            <mxPoint x="610" y="710" as="targetPoint" />
          </mxGeometry>
        </mxCell>
        <mxCell id="vxAgJUTMDRlx3121qzaJ-67" value="Response" style="text;html=1;strokeColor=none;fillColor=none;align=center;verticalAlign=middle;whiteSpace=wrap;rounded=0;" parent="1" vertex="1">
          <mxGeometry x="660" y="680" width="60" height="30" as="geometry" />
        </mxCell>
        <mxCell id="vxAgJUTMDRlx3121qzaJ-68" value="" style="endArrow=none;dashed=1;html=1;rounded=0;" parent="1" edge="1">
          <mxGeometry width="50" height="50" relative="1" as="geometry">
            <mxPoint x="55" y="900" as="sourcePoint" />
            <mxPoint x="54.5" y="160" as="targetPoint" />
          </mxGeometry>
        </mxCell>
        <mxCell id="vxAgJUTMDRlx3121qzaJ-69" value="Get All Employee" style="text;html=1;strokeColor=none;fillColor=none;align=center;verticalAlign=middle;whiteSpace=wrap;rounded=0;" parent="1" vertex="1">
          <mxGeometry x="235" y="390" width="125" height="20" as="geometry" />
        </mxCell>
        <mxCell id="vxAgJUTMDRlx3121qzaJ-70" value="getAllEmployee()" style="text;html=1;strokeColor=none;fillColor=none;align=center;verticalAlign=middle;whiteSpace=wrap;rounded=0;" parent="1" vertex="1">
          <mxGeometry x="440" y="385" width="130" height="30" as="geometry" />
        </mxCell>
        <mxCell id="vxAgJUTMDRlx3121qzaJ-71" value="findById()" style="text;html=1;strokeColor=none;fillColor=none;align=center;verticalAlign=middle;whiteSpace=wrap;rounded=0;" parent="1" vertex="1">
          <mxGeometry x="650" y="260" width="60" height="30" as="geometry" />
        </mxCell>
        <mxCell id="vxAgJUTMDRlx3121qzaJ-72" value="findAll()" style="text;html=1;strokeColor=none;fillColor=none;align=center;verticalAlign=middle;whiteSpace=wrap;rounded=0;" parent="1" vertex="1">
          <mxGeometry x="650" y="385" width="60" height="30" as="geometry" />
        </mxCell>
        <mxCell id="vxAgJUTMDRlx3121qzaJ-73" value="Update Employee by ID" style="text;html=1;strokeColor=none;fillColor=none;align=center;verticalAlign=middle;whiteSpace=wrap;rounded=0;" parent="1" vertex="1">
          <mxGeometry x="225" y="500" width="160" height="30" as="geometry" />
        </mxCell>
        <mxCell id="vxAgJUTMDRlx3121qzaJ-74" value="updateEmployee()" style="text;html=1;strokeColor=none;fillColor=none;align=center;verticalAlign=middle;whiteSpace=wrap;rounded=0;" parent="1" vertex="1">
          <mxGeometry x="440" y="500" width="130" height="30" as="geometry" />
        </mxCell>
        <mxCell id="vxAgJUTMDRlx3121qzaJ-75" value="findById()" style="text;html=1;strokeColor=none;fillColor=none;align=center;verticalAlign=middle;whiteSpace=wrap;rounded=0;" parent="1" vertex="1">
          <mxGeometry x="625" y="500" width="130" height="30" as="geometry" />
        </mxCell>
        <mxCell id="vxAgJUTMDRlx3121qzaJ-76" value="Employee Fetched Successfully" style="text;html=1;strokeColor=none;fillColor=none;align=center;verticalAlign=middle;whiteSpace=wrap;rounded=0;" parent="1" vertex="1">
          <mxGeometry x="220" y="470" width="180" height="20" as="geometry" />
        </mxCell>
        <mxCell id="vxAgJUTMDRlx3121qzaJ-78" value="Employee Updated Successfully" style="text;html=1;strokeColor=none;fillColor=none;align=center;verticalAlign=middle;whiteSpace=wrap;rounded=0;" parent="1" vertex="1">
          <mxGeometry x="220" y="590" width="180" height="20" as="geometry" />
        </mxCell>
        <mxCell id="vxAgJUTMDRlx3121qzaJ-79" value="Delete Employee by ID" style="text;html=1;strokeColor=none;fillColor=none;align=center;verticalAlign=middle;whiteSpace=wrap;rounded=0;" parent="1" vertex="1">
          <mxGeometry x="220" y="620" width="160" height="30" as="geometry" />
        </mxCell>
        <mxCell id="vxAgJUTMDRlx3121qzaJ-80" value="deleteEmployee()" style="text;html=1;strokeColor=none;fillColor=none;align=center;verticalAlign=middle;whiteSpace=wrap;rounded=0;" parent="1" vertex="1">
          <mxGeometry x="440" y="620" width="130" height="30" as="geometry" />
        </mxCell>
        <mxCell id="vxAgJUTMDRlx3121qzaJ-81" value="delete()" style="text;html=1;strokeColor=none;fillColor=none;align=center;verticalAlign=middle;whiteSpace=wrap;rounded=0;" parent="1" vertex="1">
          <mxGeometry x="625" y="620" width="130" height="30" as="geometry" />
        </mxCell>
        <mxCell id="vxAgJUTMDRlx3121qzaJ-82" value="Employee deleted Successfully" style="text;html=1;strokeColor=none;fillColor=none;align=center;verticalAlign=middle;whiteSpace=wrap;rounded=0;" parent="1" vertex="1">
          <mxGeometry x="225" y="710" width="180" height="30" as="geometry" />
        </mxCell>
        <mxCell id="vxAgJUTMDRlx3121qzaJ-83" value="" style="endArrow=none;dashed=1;html=1;rounded=0;" parent="1" edge="1">
          <mxGeometry width="50" height="50" relative="1" as="geometry">
            <mxPoint x="205" y="840" as="sourcePoint" />
            <mxPoint x="205" y="730" as="targetPoint" />
          </mxGeometry>
        </mxCell>
        <mxCell id="vxAgJUTMDRlx3121qzaJ-84" value="" style="endArrow=classic;html=1;rounded=0;" parent="1" edge="1">
          <mxGeometry width="50" height="50" relative="1" as="geometry">
            <mxPoint x="205" y="790" as="sourcePoint" />
            <mxPoint x="55" y="790" as="targetPoint" />
          </mxGeometry>
        </mxCell>
        <mxCell id="vxAgJUTMDRlx3121qzaJ-85" value="Response" style="text;html=1;strokeColor=none;fillColor=none;align=center;verticalAlign=middle;whiteSpace=wrap;rounded=0;" parent="1" vertex="1">
          <mxGeometry x="100" y="760" width="60" height="30" as="geometry" />
        </mxCell>
      </root>
    </mxGraphModel>
  </diagram>
  <diagram name="Department Service" id="DRwqv3isn_EJBDV3GVsK">
    <mxGraphModel dx="1591" dy="798" grid="1" gridSize="10" guides="1" tooltips="1" connect="1" arrows="1" fold="1" page="1" pageScale="1" pageWidth="827" pageHeight="1169" math="0" shadow="0">
      <root>
        <mxCell id="Tb-grUAP6oXHrMeM2_LU-0" />
        <mxCell id="Tb-grUAP6oXHrMeM2_LU-1" parent="Tb-grUAP6oXHrMeM2_LU-0" />
        <mxCell id="Tb-grUAP6oXHrMeM2_LU-2" value="Actor" style="shape=umlActor;verticalLabelPosition=bottom;verticalAlign=top;html=1;outlineConnect=0;" parent="Tb-grUAP6oXHrMeM2_LU-1" vertex="1">
          <mxGeometry x="40" y="70" width="30" height="50" as="geometry" />
        </mxCell>
        <mxCell id="Tb-grUAP6oXHrMeM2_LU-3" value="Department Controller" style="rounded=0;whiteSpace=wrap;html=1;" parent="Tb-grUAP6oXHrMeM2_LU-1" vertex="1">
          <mxGeometry x="140" y="80" width="140" height="40" as="geometry" />
        </mxCell>
        <mxCell id="Tb-grUAP6oXHrMeM2_LU-4" value="Department Service" style="rounded=0;whiteSpace=wrap;html=1;" parent="Tb-grUAP6oXHrMeM2_LU-1" vertex="1">
          <mxGeometry x="340" y="80" width="140" height="40" as="geometry" />
        </mxCell>
        <mxCell id="Tb-grUAP6oXHrMeM2_LU-5" value="Department Repository" style="rounded=0;whiteSpace=wrap;html=1;" parent="Tb-grUAP6oXHrMeM2_LU-1" vertex="1">
          <mxGeometry x="540" y="80" width="140" height="40" as="geometry" />
        </mxCell>
        <mxCell id="Tb-grUAP6oXHrMeM2_LU-6" value="MySql DB" style="shape=cylinder3;whiteSpace=wrap;html=1;boundedLbl=1;backgroundOutline=1;size=15;" parent="Tb-grUAP6oXHrMeM2_LU-1" vertex="1">
          <mxGeometry x="740" y="80" width="70" height="70" as="geometry" />
        </mxCell>
        <mxCell id="Tb-grUAP6oXHrMeM2_LU-7" value="" style="html=1;points=[[0,0,0,0,5],[0,1,0,0,-5],[1,0,0,0,5],[1,1,0,0,-5]];perimeter=orthogonalPerimeter;outlineConnect=0;targetShapes=umlLifeline;portConstraint=eastwest;newEdgeStyle={&quot;curved&quot;:0,&quot;rounded&quot;:0};" parent="Tb-grUAP6oXHrMeM2_LU-1" vertex="1">
          <mxGeometry x="200" y="150" width="10" height="100" as="geometry" />
        </mxCell>
        <mxCell id="Tb-grUAP6oXHrMeM2_LU-8" value="" style="html=1;points=[[0,0,0,0,5],[0,1,0,0,-5],[1,0,0,0,5],[1,1,0,0,-5]];perimeter=orthogonalPerimeter;outlineConnect=0;targetShapes=umlLifeline;portConstraint=eastwest;newEdgeStyle={&quot;curved&quot;:0,&quot;rounded&quot;:0};" parent="Tb-grUAP6oXHrMeM2_LU-1" vertex="1">
          <mxGeometry x="205" y="180" width="10" height="40" as="geometry" />
        </mxCell>
        <mxCell id="Tb-grUAP6oXHrMeM2_LU-9" value="" style="html=1;points=[[0,0,0,0,5],[0,1,0,0,-5],[1,0,0,0,5],[1,1,0,0,-5]];perimeter=orthogonalPerimeter;outlineConnect=0;targetShapes=umlLifeline;portConstraint=eastwest;newEdgeStyle={&quot;curved&quot;:0,&quot;rounded&quot;:0};" parent="Tb-grUAP6oXHrMeM2_LU-1" vertex="1">
          <mxGeometry x="400" y="150" width="10" height="100" as="geometry" />
        </mxCell>
        <mxCell id="Tb-grUAP6oXHrMeM2_LU-10" value="" style="html=1;points=[[0,0,0,0,5],[0,1,0,0,-5],[1,0,0,0,5],[1,1,0,0,-5]];perimeter=orthogonalPerimeter;outlineConnect=0;targetShapes=umlLifeline;portConstraint=eastwest;newEdgeStyle={&quot;curved&quot;:0,&quot;rounded&quot;:0};" parent="Tb-grUAP6oXHrMeM2_LU-1" vertex="1">
          <mxGeometry x="600" y="150" width="10" height="100" as="geometry" />
        </mxCell>
        <mxCell id="Tb-grUAP6oXHrMeM2_LU-11" value="" style="endArrow=classic;html=1;rounded=0;" parent="Tb-grUAP6oXHrMeM2_LU-1" edge="1">
          <mxGeometry width="50" height="50" relative="1" as="geometry">
            <mxPoint x="210" y="169" as="sourcePoint" />
            <mxPoint x="400" y="169" as="targetPoint" />
            <Array as="points" />
          </mxGeometry>
        </mxCell>
        <mxCell id="Tb-grUAP6oXHrMeM2_LU-12" value="" style="endArrow=classic;html=1;rounded=0;" parent="Tb-grUAP6oXHrMeM2_LU-1" edge="1">
          <mxGeometry width="50" height="50" relative="1" as="geometry">
            <mxPoint x="400" y="230" as="sourcePoint" />
            <mxPoint x="210" y="230" as="targetPoint" />
          </mxGeometry>
        </mxCell>
        <mxCell id="Tb-grUAP6oXHrMeM2_LU-13" value="" style="endArrow=classic;html=1;rounded=0;" parent="Tb-grUAP6oXHrMeM2_LU-1" edge="1">
          <mxGeometry width="50" height="50" relative="1" as="geometry">
            <mxPoint x="780" y="230" as="sourcePoint" />
            <mxPoint x="610" y="230" as="targetPoint" />
          </mxGeometry>
        </mxCell>
        <mxCell id="Tb-grUAP6oXHrMeM2_LU-14" value="" style="endArrow=classic;html=1;rounded=0;exitX=1;exitY=0.308;exitDx=0;exitDy=0;exitPerimeter=0;" parent="Tb-grUAP6oXHrMeM2_LU-1" edge="1">
          <mxGeometry width="50" height="50" relative="1" as="geometry">
            <mxPoint x="410" y="169.99999999999997" as="sourcePoint" />
            <mxPoint x="600" y="169.99999999999997" as="targetPoint" />
          </mxGeometry>
        </mxCell>
        <mxCell id="Tb-grUAP6oXHrMeM2_LU-15" value="" style="endArrow=none;dashed=1;html=1;rounded=0;" parent="Tb-grUAP6oXHrMeM2_LU-1" edge="1">
          <mxGeometry width="50" height="50" relative="1" as="geometry">
            <mxPoint x="780" y="770" as="sourcePoint" />
            <mxPoint x="780" y="150" as="targetPoint" />
          </mxGeometry>
        </mxCell>
        <mxCell id="Tb-grUAP6oXHrMeM2_LU-16" value="" style="endArrow=classic;html=1;rounded=0;" parent="Tb-grUAP6oXHrMeM2_LU-1" source="Tb-grUAP6oXHrMeM2_LU-10" edge="1">
          <mxGeometry width="50" height="50" relative="1" as="geometry">
            <mxPoint x="620" y="169" as="sourcePoint" />
            <mxPoint x="780" y="169" as="targetPoint" />
            <Array as="points">
              <mxPoint x="700" y="169" />
            </Array>
          </mxGeometry>
        </mxCell>
        <mxCell id="Tb-grUAP6oXHrMeM2_LU-17" value="Adding Department to DB" style="text;html=1;strokeColor=none;fillColor=none;align=center;verticalAlign=middle;whiteSpace=wrap;rounded=0;" parent="Tb-grUAP6oXHrMeM2_LU-1" vertex="1">
          <mxGeometry x="220" y="140" width="160" height="30" as="geometry" />
        </mxCell>
        <mxCell id="Tb-grUAP6oXHrMeM2_LU-18" value="saveDepartment()" style="text;html=1;strokeColor=none;fillColor=none;align=center;verticalAlign=middle;whiteSpace=wrap;rounded=0;" parent="Tb-grUAP6oXHrMeM2_LU-1" vertex="1">
          <mxGeometry x="450" y="140" width="110" height="30" as="geometry" />
        </mxCell>
        <mxCell id="Tb-grUAP6oXHrMeM2_LU-19" value="save()" style="text;html=1;strokeColor=none;fillColor=none;align=center;verticalAlign=middle;whiteSpace=wrap;rounded=0;" parent="Tb-grUAP6oXHrMeM2_LU-1" vertex="1">
          <mxGeometry x="650" y="140" width="60" height="30" as="geometry" />
        </mxCell>
        <mxCell id="Tb-grUAP6oXHrMeM2_LU-20" value="Response" style="text;html=1;strokeColor=none;fillColor=none;align=center;verticalAlign=middle;whiteSpace=wrap;rounded=0;" parent="Tb-grUAP6oXHrMeM2_LU-1" vertex="1">
          <mxGeometry x="270" y="200" width="60" height="30" as="geometry" />
        </mxCell>
        <mxCell id="Tb-grUAP6oXHrMeM2_LU-21" value="Response" style="text;html=1;strokeColor=none;fillColor=none;align=center;verticalAlign=middle;whiteSpace=wrap;rounded=0;" parent="Tb-grUAP6oXHrMeM2_LU-1" vertex="1">
          <mxGeometry x="475" y="210" width="60" height="30" as="geometry" />
        </mxCell>
        <mxCell id="Tb-grUAP6oXHrMeM2_LU-22" value="Response" style="text;html=1;strokeColor=none;fillColor=none;align=center;verticalAlign=middle;whiteSpace=wrap;rounded=0;" parent="Tb-grUAP6oXHrMeM2_LU-1" vertex="1">
          <mxGeometry x="660" y="200" width="60" height="30" as="geometry" />
        </mxCell>
        <mxCell id="Tb-grUAP6oXHrMeM2_LU-23" value="" style="html=1;points=[[0,0,0,0,5],[0,1,0,0,-5],[1,0,0,0,5],[1,1,0,0,-5]];perimeter=orthogonalPerimeter;outlineConnect=0;targetShapes=umlLifeline;portConstraint=eastwest;newEdgeStyle={&quot;curved&quot;:0,&quot;rounded&quot;:0};" parent="Tb-grUAP6oXHrMeM2_LU-1" vertex="1">
          <mxGeometry x="600" y="272.5" width="10" height="95" as="geometry" />
        </mxCell>
        <mxCell id="Tb-grUAP6oXHrMeM2_LU-24" value="" style="endArrow=classic;html=1;rounded=0;" parent="Tb-grUAP6oXHrMeM2_LU-1" source="Tb-grUAP6oXHrMeM2_LU-47" edge="1">
          <mxGeometry width="50" height="50" relative="1" as="geometry">
            <mxPoint x="220" y="290" as="sourcePoint" />
            <mxPoint x="400" y="290" as="targetPoint" />
          </mxGeometry>
        </mxCell>
        <mxCell id="Tb-grUAP6oXHrMeM2_LU-25" value="" style="endArrow=classic;html=1;rounded=0;" parent="Tb-grUAP6oXHrMeM2_LU-1" source="Tb-grUAP6oXHrMeM2_LU-49" edge="1">
          <mxGeometry width="50" height="50" relative="1" as="geometry">
            <mxPoint x="400" y="360.25" as="sourcePoint" />
            <mxPoint x="210" y="349.75" as="targetPoint" />
          </mxGeometry>
        </mxCell>
        <mxCell id="Tb-grUAP6oXHrMeM2_LU-26" value="" style="endArrow=classic;html=1;rounded=0;entryX=0;entryY=0.214;entryDx=0;entryDy=0;entryPerimeter=0;" parent="Tb-grUAP6oXHrMeM2_LU-1" edge="1">
          <mxGeometry width="50" height="50" relative="1" as="geometry">
            <mxPoint x="410" y="290.00000000000006" as="sourcePoint" />
            <mxPoint x="600" y="290.00000000000006" as="targetPoint" />
          </mxGeometry>
        </mxCell>
        <mxCell id="Tb-grUAP6oXHrMeM2_LU-27" value="" style="endArrow=classic;html=1;rounded=0;" parent="Tb-grUAP6oXHrMeM2_LU-1" edge="1">
          <mxGeometry width="50" height="50" relative="1" as="geometry">
            <mxPoint x="610" y="290" as="sourcePoint" />
            <mxPoint x="780" y="290" as="targetPoint" />
            <Array as="points">
              <mxPoint x="660" y="290" />
            </Array>
          </mxGeometry>
        </mxCell>
        <mxCell id="Tb-grUAP6oXHrMeM2_LU-28" value="" style="endArrow=classic;html=1;rounded=0;entryX=1;entryY=1;entryDx=0;entryDy=-5;entryPerimeter=0;" parent="Tb-grUAP6oXHrMeM2_LU-1" edge="1">
          <mxGeometry width="50" height="50" relative="1" as="geometry">
            <mxPoint x="600" y="350" as="sourcePoint" />
            <mxPoint x="410" y="350" as="targetPoint" />
          </mxGeometry>
        </mxCell>
        <mxCell id="Tb-grUAP6oXHrMeM2_LU-29" value="" style="endArrow=classic;html=1;rounded=0;" parent="Tb-grUAP6oXHrMeM2_LU-1" edge="1">
          <mxGeometry width="50" height="50" relative="1" as="geometry">
            <mxPoint x="780" y="350" as="sourcePoint" />
            <mxPoint x="610" y="350" as="targetPoint" />
          </mxGeometry>
        </mxCell>
        <mxCell id="Tb-grUAP6oXHrMeM2_LU-30" value="Response" style="text;html=1;strokeColor=none;fillColor=none;align=center;verticalAlign=middle;whiteSpace=wrap;rounded=0;" parent="Tb-grUAP6oXHrMeM2_LU-1" vertex="1">
          <mxGeometry x="270" y="320" width="60" height="30" as="geometry" />
        </mxCell>
        <mxCell id="Tb-grUAP6oXHrMeM2_LU-31" value="Response" style="text;html=1;strokeColor=none;fillColor=none;align=center;verticalAlign=middle;whiteSpace=wrap;rounded=0;" parent="Tb-grUAP6oXHrMeM2_LU-1" vertex="1">
          <mxGeometry x="480" y="320" width="60" height="30" as="geometry" />
        </mxCell>
        <mxCell id="Tb-grUAP6oXHrMeM2_LU-32" value="Get Department by Code" style="text;html=1;strokeColor=none;fillColor=none;align=center;verticalAlign=middle;whiteSpace=wrap;rounded=0;" parent="Tb-grUAP6oXHrMeM2_LU-1" vertex="1">
          <mxGeometry x="215" y="270" width="175" height="20" as="geometry" />
        </mxCell>
        <mxCell id="Tb-grUAP6oXHrMeM2_LU-33" value="getDepartmentByCode()" style="text;html=1;strokeColor=none;fillColor=none;align=center;verticalAlign=middle;whiteSpace=wrap;rounded=0;" parent="Tb-grUAP6oXHrMeM2_LU-1" vertex="1">
          <mxGeometry x="440" y="260" width="130" height="30" as="geometry" />
        </mxCell>
        <mxCell id="Tb-grUAP6oXHrMeM2_LU-34" value="Response" style="text;html=1;strokeColor=none;fillColor=none;align=center;verticalAlign=middle;whiteSpace=wrap;rounded=0;" parent="Tb-grUAP6oXHrMeM2_LU-1" vertex="1">
          <mxGeometry x="660" y="320" width="60" height="30" as="geometry" />
        </mxCell>
        <mxCell id="Tb-grUAP6oXHrMeM2_LU-35" value="" style="endArrow=none;dashed=1;html=1;rounded=0;" parent="Tb-grUAP6oXHrMeM2_LU-1" edge="1">
          <mxGeometry width="50" height="50" relative="1" as="geometry">
            <mxPoint x="204.5" y="150" as="sourcePoint" />
            <mxPoint x="204.5" y="120" as="targetPoint" />
          </mxGeometry>
        </mxCell>
        <mxCell id="Tb-grUAP6oXHrMeM2_LU-36" value="" style="endArrow=none;dashed=1;html=1;rounded=0;" parent="Tb-grUAP6oXHrMeM2_LU-1" edge="1">
          <mxGeometry width="50" height="50" relative="1" as="geometry">
            <mxPoint x="404.5" y="150" as="sourcePoint" />
            <mxPoint x="404.5" y="120" as="targetPoint" />
          </mxGeometry>
        </mxCell>
        <mxCell id="Tb-grUAP6oXHrMeM2_LU-37" value="" style="endArrow=none;dashed=1;html=1;rounded=0;" parent="Tb-grUAP6oXHrMeM2_LU-1" edge="1">
          <mxGeometry width="50" height="50" relative="1" as="geometry">
            <mxPoint x="604.5" y="150" as="sourcePoint" />
            <mxPoint x="604.5" y="120" as="targetPoint" />
          </mxGeometry>
        </mxCell>
        <mxCell id="Tb-grUAP6oXHrMeM2_LU-38" value="Department Added Successfully" style="text;html=1;strokeColor=none;fillColor=none;align=center;verticalAlign=middle;whiteSpace=wrap;rounded=0;" parent="Tb-grUAP6oXHrMeM2_LU-1" vertex="1">
          <mxGeometry x="220" y="230" width="175" height="30" as="geometry" />
        </mxCell>
        <mxCell id="Tb-grUAP6oXHrMeM2_LU-39" value="" style="endArrow=none;dashed=1;html=1;rounded=0;" parent="Tb-grUAP6oXHrMeM2_LU-1" source="Tb-grUAP6oXHrMeM2_LU-47" edge="1">
          <mxGeometry width="50" height="50" relative="1" as="geometry">
            <mxPoint x="204.5" y="340" as="sourcePoint" />
            <mxPoint x="204.5" y="280" as="targetPoint" />
          </mxGeometry>
        </mxCell>
        <mxCell id="Tb-grUAP6oXHrMeM2_LU-40" value="" style="endArrow=none;dashed=1;html=1;rounded=0;" parent="Tb-grUAP6oXHrMeM2_LU-1" source="Tb-grUAP6oXHrMeM2_LU-49" edge="1">
          <mxGeometry width="50" height="50" relative="1" as="geometry">
            <mxPoint x="404.5" y="340" as="sourcePoint" />
            <mxPoint x="404.5" y="280" as="targetPoint" />
            <Array as="points" />
          </mxGeometry>
        </mxCell>
        <mxCell id="Tb-grUAP6oXHrMeM2_LU-41" value="Client - Postman" style="text;html=1;strokeColor=none;fillColor=none;align=center;verticalAlign=middle;whiteSpace=wrap;rounded=0;" parent="Tb-grUAP6oXHrMeM2_LU-1" vertex="1">
          <mxGeometry x="10" y="140" width="110" height="30" as="geometry" />
        </mxCell>
        <mxCell id="Tb-grUAP6oXHrMeM2_LU-42" value="" style="endArrow=classic;html=1;rounded=0;" parent="Tb-grUAP6oXHrMeM2_LU-1" edge="1">
          <mxGeometry width="50" height="50" relative="1" as="geometry">
            <mxPoint x="55" y="190" as="sourcePoint" />
            <mxPoint x="200" y="190" as="targetPoint" />
          </mxGeometry>
        </mxCell>
        <mxCell id="Tb-grUAP6oXHrMeM2_LU-43" value="Request" style="text;html=1;strokeColor=none;fillColor=none;align=center;verticalAlign=middle;whiteSpace=wrap;rounded=0;" parent="Tb-grUAP6oXHrMeM2_LU-1" vertex="1">
          <mxGeometry x="100" y="170" width="60" height="20" as="geometry" />
        </mxCell>
        <mxCell id="Tb-grUAP6oXHrMeM2_LU-44" value="Department Fetched Successfully" style="text;html=1;strokeColor=none;fillColor=none;align=center;verticalAlign=middle;whiteSpace=wrap;rounded=0;" parent="Tb-grUAP6oXHrMeM2_LU-1" vertex="1">
          <mxGeometry x="210" y="350" width="190" height="30" as="geometry" />
        </mxCell>
        <mxCell id="Tb-grUAP6oXHrMeM2_LU-45" value="" style="endArrow=classic;html=1;rounded=0;" parent="Tb-grUAP6oXHrMeM2_LU-1" edge="1">
          <mxGeometry width="50" height="50" relative="1" as="geometry">
            <mxPoint x="600" y="230" as="sourcePoint" />
            <mxPoint x="410" y="230" as="targetPoint" />
          </mxGeometry>
        </mxCell>
        <mxCell id="Tb-grUAP6oXHrMeM2_LU-46" value="" style="endArrow=none;dashed=1;html=1;rounded=0;" parent="Tb-grUAP6oXHrMeM2_LU-1" target="Tb-grUAP6oXHrMeM2_LU-47" edge="1">
          <mxGeometry width="50" height="50" relative="1" as="geometry">
            <mxPoint x="204.5" y="340" as="sourcePoint" />
            <mxPoint x="204.5" y="280" as="targetPoint" />
          </mxGeometry>
        </mxCell>
        <mxCell id="Tb-grUAP6oXHrMeM2_LU-47" value="" style="html=1;points=[[0,0,0,0,5],[0,1,0,0,-5],[1,0,0,0,5],[1,1,0,0,-5]];perimeter=orthogonalPerimeter;outlineConnect=0;targetShapes=umlLifeline;portConstraint=eastwest;newEdgeStyle={&quot;curved&quot;:0,&quot;rounded&quot;:0};" parent="Tb-grUAP6oXHrMeM2_LU-1" vertex="1">
          <mxGeometry x="200" y="270" width="10" height="100" as="geometry" />
        </mxCell>
        <mxCell id="Tb-grUAP6oXHrMeM2_LU-48" value="" style="endArrow=none;dashed=1;html=1;rounded=0;" parent="Tb-grUAP6oXHrMeM2_LU-1" target="Tb-grUAP6oXHrMeM2_LU-49" edge="1">
          <mxGeometry width="50" height="50" relative="1" as="geometry">
            <mxPoint x="404.5" y="340" as="sourcePoint" />
            <mxPoint x="404.5" y="280" as="targetPoint" />
            <Array as="points">
              <mxPoint x="404.5" y="310" />
            </Array>
          </mxGeometry>
        </mxCell>
        <mxCell id="Tb-grUAP6oXHrMeM2_LU-49" value="" style="html=1;points=[[0,0,0,0,5],[0,1,0,0,-5],[1,0,0,0,5],[1,1,0,0,-5]];perimeter=orthogonalPerimeter;outlineConnect=0;targetShapes=umlLifeline;portConstraint=eastwest;newEdgeStyle={&quot;curved&quot;:0,&quot;rounded&quot;:0};" parent="Tb-grUAP6oXHrMeM2_LU-1" vertex="1">
          <mxGeometry x="400" y="270" width="10" height="100" as="geometry" />
        </mxCell>
        <mxCell id="Tb-grUAP6oXHrMeM2_LU-50" value="" style="html=1;points=[[0,0,0,0,5],[0,1,0,0,-5],[1,0,0,0,5],[1,1,0,0,-5]];perimeter=orthogonalPerimeter;outlineConnect=0;targetShapes=umlLifeline;portConstraint=eastwest;newEdgeStyle={&quot;curved&quot;:0,&quot;rounded&quot;:0};" parent="Tb-grUAP6oXHrMeM2_LU-1" vertex="1">
          <mxGeometry x="205" y="302.5" width="10" height="40" as="geometry" />
        </mxCell>
        <mxCell id="Tb-grUAP6oXHrMeM2_LU-51" value="" style="endArrow=none;dashed=1;html=1;rounded=0;" parent="Tb-grUAP6oXHrMeM2_LU-1" edge="1">
          <mxGeometry width="50" height="50" relative="1" as="geometry">
            <mxPoint x="205" y="270" as="sourcePoint" />
            <mxPoint x="205" y="250" as="targetPoint" />
          </mxGeometry>
        </mxCell>
        <mxCell id="Tb-grUAP6oXHrMeM2_LU-52" value="" style="endArrow=none;dashed=1;html=1;rounded=0;" parent="Tb-grUAP6oXHrMeM2_LU-1" edge="1">
          <mxGeometry width="50" height="50" relative="1" as="geometry">
            <mxPoint x="604.5" y="270" as="sourcePoint" />
            <mxPoint x="604.5" y="250" as="targetPoint" />
          </mxGeometry>
        </mxCell>
        <mxCell id="Tb-grUAP6oXHrMeM2_LU-53" value="" style="html=1;points=[[0,0,0,0,5],[0,1,0,0,-5],[1,0,0,0,5],[1,1,0,0,-5]];perimeter=orthogonalPerimeter;outlineConnect=0;targetShapes=umlLifeline;portConstraint=eastwest;newEdgeStyle={&quot;curved&quot;:0,&quot;rounded&quot;:0};" parent="Tb-grUAP6oXHrMeM2_LU-1" vertex="1">
          <mxGeometry x="200" y="390" width="10" height="100" as="geometry" />
        </mxCell>
        <mxCell id="Tb-grUAP6oXHrMeM2_LU-54" value="" style="html=1;points=[[0,0,0,0,5],[0,1,0,0,-5],[1,0,0,0,5],[1,1,0,0,-5]];perimeter=orthogonalPerimeter;outlineConnect=0;targetShapes=umlLifeline;portConstraint=eastwest;newEdgeStyle={&quot;curved&quot;:0,&quot;rounded&quot;:0};" parent="Tb-grUAP6oXHrMeM2_LU-1" vertex="1">
          <mxGeometry x="205" y="422.5" width="10" height="40" as="geometry" />
        </mxCell>
        <mxCell id="Tb-grUAP6oXHrMeM2_LU-55" value="" style="html=1;points=[[0,0,0,0,5],[0,1,0,0,-5],[1,0,0,0,5],[1,1,0,0,-5]];perimeter=orthogonalPerimeter;outlineConnect=0;targetShapes=umlLifeline;portConstraint=eastwest;newEdgeStyle={&quot;curved&quot;:0,&quot;rounded&quot;:0};" parent="Tb-grUAP6oXHrMeM2_LU-1" vertex="1">
          <mxGeometry x="200" y="510" width="10" height="100" as="geometry" />
        </mxCell>
        <mxCell id="Tb-grUAP6oXHrMeM2_LU-56" value="" style="html=1;points=[[0,0,0,0,5],[0,1,0,0,-5],[1,0,0,0,5],[1,1,0,0,-5]];perimeter=orthogonalPerimeter;outlineConnect=0;targetShapes=umlLifeline;portConstraint=eastwest;newEdgeStyle={&quot;curved&quot;:0,&quot;rounded&quot;:0};" parent="Tb-grUAP6oXHrMeM2_LU-1" vertex="1">
          <mxGeometry x="205" y="542.5" width="10" height="40" as="geometry" />
        </mxCell>
        <mxCell id="Tb-grUAP6oXHrMeM2_LU-57" value="" style="html=1;points=[[0,0,0,0,5],[0,1,0,0,-5],[1,0,0,0,5],[1,1,0,0,-5]];perimeter=orthogonalPerimeter;outlineConnect=0;targetShapes=umlLifeline;portConstraint=eastwest;newEdgeStyle={&quot;curved&quot;:0,&quot;rounded&quot;:0};" parent="Tb-grUAP6oXHrMeM2_LU-1" vertex="1">
          <mxGeometry x="400" y="390" width="10" height="100" as="geometry" />
        </mxCell>
        <mxCell id="Tb-grUAP6oXHrMeM2_LU-58" value="" style="html=1;points=[[0,0,0,0,5],[0,1,0,0,-5],[1,0,0,0,5],[1,1,0,0,-5]];perimeter=orthogonalPerimeter;outlineConnect=0;targetShapes=umlLifeline;portConstraint=eastwest;newEdgeStyle={&quot;curved&quot;:0,&quot;rounded&quot;:0};" parent="Tb-grUAP6oXHrMeM2_LU-1" vertex="1">
          <mxGeometry x="400" y="510" width="10" height="100" as="geometry" />
        </mxCell>
        <mxCell id="Tb-grUAP6oXHrMeM2_LU-59" value="" style="html=1;points=[[0,0,0,0,5],[0,1,0,0,-5],[1,0,0,0,5],[1,1,0,0,-5]];perimeter=orthogonalPerimeter;outlineConnect=0;targetShapes=umlLifeline;portConstraint=eastwest;newEdgeStyle={&quot;curved&quot;:0,&quot;rounded&quot;:0};" parent="Tb-grUAP6oXHrMeM2_LU-1" vertex="1">
          <mxGeometry x="600" y="390" width="10" height="100" as="geometry" />
        </mxCell>
        <mxCell id="Tb-grUAP6oXHrMeM2_LU-60" value="" style="html=1;points=[[0,0,0,0,5],[0,1,0,0,-5],[1,0,0,0,5],[1,1,0,0,-5]];perimeter=orthogonalPerimeter;outlineConnect=0;targetShapes=umlLifeline;portConstraint=eastwest;newEdgeStyle={&quot;curved&quot;:0,&quot;rounded&quot;:0};" parent="Tb-grUAP6oXHrMeM2_LU-1" vertex="1">
          <mxGeometry x="600" y="510" width="10" height="100" as="geometry" />
        </mxCell>
        <mxCell id="Tb-grUAP6oXHrMeM2_LU-61" value="" style="endArrow=classic;html=1;rounded=0;exitX=1;exitY=0.308;exitDx=0;exitDy=0;exitPerimeter=0;" parent="Tb-grUAP6oXHrMeM2_LU-1" edge="1">
          <mxGeometry width="50" height="50" relative="1" as="geometry">
            <mxPoint x="210" y="410" as="sourcePoint" />
            <mxPoint x="400" y="410" as="targetPoint" />
          </mxGeometry>
        </mxCell>
        <mxCell id="Tb-grUAP6oXHrMeM2_LU-62" value="" style="endArrow=classic;html=1;rounded=0;exitX=1;exitY=0.308;exitDx=0;exitDy=0;exitPerimeter=0;" parent="Tb-grUAP6oXHrMeM2_LU-1" edge="1">
          <mxGeometry width="50" height="50" relative="1" as="geometry">
            <mxPoint x="410" y="410" as="sourcePoint" />
            <mxPoint x="600" y="410" as="targetPoint" />
          </mxGeometry>
        </mxCell>
        <mxCell id="Tb-grUAP6oXHrMeM2_LU-63" value="" style="endArrow=classic;html=1;rounded=0;exitX=1;exitY=0.308;exitDx=0;exitDy=0;exitPerimeter=0;" parent="Tb-grUAP6oXHrMeM2_LU-1" edge="1">
          <mxGeometry width="50" height="50" relative="1" as="geometry">
            <mxPoint x="610" y="410" as="sourcePoint" />
            <mxPoint x="780" y="410" as="targetPoint" />
          </mxGeometry>
        </mxCell>
        <mxCell id="Tb-grUAP6oXHrMeM2_LU-64" value="" style="endArrow=classic;html=1;rounded=0;exitX=1;exitY=0.308;exitDx=0;exitDy=0;exitPerimeter=0;" parent="Tb-grUAP6oXHrMeM2_LU-1" edge="1">
          <mxGeometry width="50" height="50" relative="1" as="geometry">
            <mxPoint x="210" y="530" as="sourcePoint" />
            <mxPoint x="400" y="530" as="targetPoint" />
          </mxGeometry>
        </mxCell>
        <mxCell id="Tb-grUAP6oXHrMeM2_LU-65" value="" style="endArrow=classic;html=1;rounded=0;exitX=1;exitY=0.308;exitDx=0;exitDy=0;exitPerimeter=0;" parent="Tb-grUAP6oXHrMeM2_LU-1" edge="1">
          <mxGeometry width="50" height="50" relative="1" as="geometry">
            <mxPoint x="410" y="530" as="sourcePoint" />
            <mxPoint x="600" y="530" as="targetPoint" />
          </mxGeometry>
        </mxCell>
        <mxCell id="Tb-grUAP6oXHrMeM2_LU-66" value="" style="endArrow=classic;html=1;rounded=0;exitX=1;exitY=0.308;exitDx=0;exitDy=0;exitPerimeter=0;" parent="Tb-grUAP6oXHrMeM2_LU-1" edge="1">
          <mxGeometry width="50" height="50" relative="1" as="geometry">
            <mxPoint x="610" y="530" as="sourcePoint" />
            <mxPoint x="780" y="530" as="targetPoint" />
          </mxGeometry>
        </mxCell>
        <mxCell id="Tb-grUAP6oXHrMeM2_LU-67" value="" style="endArrow=classic;html=1;rounded=0;entryX=1;entryY=1;entryDx=0;entryDy=-5;entryPerimeter=0;" parent="Tb-grUAP6oXHrMeM2_LU-1" edge="1">
          <mxGeometry width="50" height="50" relative="1" as="geometry">
            <mxPoint x="400" y="470" as="sourcePoint" />
            <mxPoint x="210" y="470" as="targetPoint" />
          </mxGeometry>
        </mxCell>
        <mxCell id="Tb-grUAP6oXHrMeM2_LU-68" value="" style="endArrow=classic;html=1;rounded=0;entryX=1;entryY=1;entryDx=0;entryDy=-5;entryPerimeter=0;" parent="Tb-grUAP6oXHrMeM2_LU-1" edge="1">
          <mxGeometry width="50" height="50" relative="1" as="geometry">
            <mxPoint x="600" y="470" as="sourcePoint" />
            <mxPoint x="410" y="470" as="targetPoint" />
          </mxGeometry>
        </mxCell>
        <mxCell id="Tb-grUAP6oXHrMeM2_LU-69" value="" style="endArrow=classic;html=1;rounded=0;entryX=1;entryY=1;entryDx=0;entryDy=-5;entryPerimeter=0;" parent="Tb-grUAP6oXHrMeM2_LU-1" edge="1">
          <mxGeometry width="50" height="50" relative="1" as="geometry">
            <mxPoint x="780" y="470" as="sourcePoint" />
            <mxPoint x="610" y="470" as="targetPoint" />
          </mxGeometry>
        </mxCell>
        <mxCell id="Tb-grUAP6oXHrMeM2_LU-70" value="" style="endArrow=classic;html=1;rounded=0;entryX=1;entryY=1;entryDx=0;entryDy=-5;entryPerimeter=0;" parent="Tb-grUAP6oXHrMeM2_LU-1" edge="1">
          <mxGeometry width="50" height="50" relative="1" as="geometry">
            <mxPoint x="400" y="590" as="sourcePoint" />
            <mxPoint x="210" y="590" as="targetPoint" />
          </mxGeometry>
        </mxCell>
        <mxCell id="Tb-grUAP6oXHrMeM2_LU-71" value="" style="endArrow=classic;html=1;rounded=0;entryX=1;entryY=1;entryDx=0;entryDy=-5;entryPerimeter=0;" parent="Tb-grUAP6oXHrMeM2_LU-1" edge="1">
          <mxGeometry width="50" height="50" relative="1" as="geometry">
            <mxPoint x="600" y="590" as="sourcePoint" />
            <mxPoint x="410" y="590" as="targetPoint" />
          </mxGeometry>
        </mxCell>
        <mxCell id="Tb-grUAP6oXHrMeM2_LU-72" value="" style="endArrow=classic;html=1;rounded=0;entryX=1;entryY=1;entryDx=0;entryDy=-5;entryPerimeter=0;" parent="Tb-grUAP6oXHrMeM2_LU-1" edge="1">
          <mxGeometry width="50" height="50" relative="1" as="geometry">
            <mxPoint x="780" y="590" as="sourcePoint" />
            <mxPoint x="610" y="590" as="targetPoint" />
          </mxGeometry>
        </mxCell>
        <mxCell id="Tb-grUAP6oXHrMeM2_LU-73" value="Response" style="text;html=1;strokeColor=none;fillColor=none;align=center;verticalAlign=middle;whiteSpace=wrap;rounded=0;" parent="Tb-grUAP6oXHrMeM2_LU-1" vertex="1">
          <mxGeometry x="270" y="560" width="60" height="30" as="geometry" />
        </mxCell>
        <mxCell id="Tb-grUAP6oXHrMeM2_LU-74" value="Response" style="text;html=1;strokeColor=none;fillColor=none;align=center;verticalAlign=middle;whiteSpace=wrap;rounded=0;" parent="Tb-grUAP6oXHrMeM2_LU-1" vertex="1">
          <mxGeometry x="270" y="440" width="60" height="30" as="geometry" />
        </mxCell>
        <mxCell id="Tb-grUAP6oXHrMeM2_LU-75" value="Response" style="text;html=1;strokeColor=none;fillColor=none;align=center;verticalAlign=middle;whiteSpace=wrap;rounded=0;" parent="Tb-grUAP6oXHrMeM2_LU-1" vertex="1">
          <mxGeometry x="475" y="440" width="60" height="30" as="geometry" />
        </mxCell>
        <mxCell id="Tb-grUAP6oXHrMeM2_LU-76" value="Response" style="text;html=1;strokeColor=none;fillColor=none;align=center;verticalAlign=middle;whiteSpace=wrap;rounded=0;" parent="Tb-grUAP6oXHrMeM2_LU-1" vertex="1">
          <mxGeometry x="660" y="440" width="60" height="30" as="geometry" />
        </mxCell>
        <mxCell id="Tb-grUAP6oXHrMeM2_LU-77" value="Response" style="text;html=1;strokeColor=none;fillColor=none;align=center;verticalAlign=middle;whiteSpace=wrap;rounded=0;" parent="Tb-grUAP6oXHrMeM2_LU-1" vertex="1">
          <mxGeometry x="660" y="560" width="60" height="30" as="geometry" />
        </mxCell>
        <mxCell id="Tb-grUAP6oXHrMeM2_LU-78" value="Response" style="text;html=1;strokeColor=none;fillColor=none;align=center;verticalAlign=middle;whiteSpace=wrap;rounded=0;" parent="Tb-grUAP6oXHrMeM2_LU-1" vertex="1">
          <mxGeometry x="475" y="560" width="60" height="30" as="geometry" />
        </mxCell>
        <mxCell id="Tb-grUAP6oXHrMeM2_LU-79" value="" style="html=1;points=[[0,0,0,0,5],[0,1,0,0,-5],[1,0,0,0,5],[1,1,0,0,-5]];perimeter=orthogonalPerimeter;outlineConnect=0;targetShapes=umlLifeline;portConstraint=eastwest;newEdgeStyle={&quot;curved&quot;:0,&quot;rounded&quot;:0};" parent="Tb-grUAP6oXHrMeM2_LU-1" vertex="1">
          <mxGeometry x="200" y="630" width="10" height="100" as="geometry" />
        </mxCell>
        <mxCell id="Tb-grUAP6oXHrMeM2_LU-80" value="" style="html=1;points=[[0,0,0,0,5],[0,1,0,0,-5],[1,0,0,0,5],[1,1,0,0,-5]];perimeter=orthogonalPerimeter;outlineConnect=0;targetShapes=umlLifeline;portConstraint=eastwest;newEdgeStyle={&quot;curved&quot;:0,&quot;rounded&quot;:0};" parent="Tb-grUAP6oXHrMeM2_LU-1" vertex="1">
          <mxGeometry x="205" y="662.5" width="10" height="40" as="geometry" />
        </mxCell>
        <mxCell id="Tb-grUAP6oXHrMeM2_LU-81" value="" style="html=1;points=[[0,0,0,0,5],[0,1,0,0,-5],[1,0,0,0,5],[1,1,0,0,-5]];perimeter=orthogonalPerimeter;outlineConnect=0;targetShapes=umlLifeline;portConstraint=eastwest;newEdgeStyle={&quot;curved&quot;:0,&quot;rounded&quot;:0};" parent="Tb-grUAP6oXHrMeM2_LU-1" vertex="1">
          <mxGeometry x="400" y="630" width="10" height="100" as="geometry" />
        </mxCell>
        <mxCell id="Tb-grUAP6oXHrMeM2_LU-82" value="" style="html=1;points=[[0,0,0,0,5],[0,1,0,0,-5],[1,0,0,0,5],[1,1,0,0,-5]];perimeter=orthogonalPerimeter;outlineConnect=0;targetShapes=umlLifeline;portConstraint=eastwest;newEdgeStyle={&quot;curved&quot;:0,&quot;rounded&quot;:0};" parent="Tb-grUAP6oXHrMeM2_LU-1" vertex="1">
          <mxGeometry x="600" y="630" width="10" height="100" as="geometry" />
        </mxCell>
        <mxCell id="Tb-grUAP6oXHrMeM2_LU-83" value="" style="endArrow=none;dashed=1;html=1;rounded=0;" parent="Tb-grUAP6oXHrMeM2_LU-1" edge="1">
          <mxGeometry width="50" height="50" relative="1" as="geometry">
            <mxPoint x="205" y="390" as="sourcePoint" />
            <mxPoint x="205" y="370" as="targetPoint" />
          </mxGeometry>
        </mxCell>
        <mxCell id="Tb-grUAP6oXHrMeM2_LU-84" value="" style="endArrow=none;dashed=1;html=1;rounded=0;" parent="Tb-grUAP6oXHrMeM2_LU-1" edge="1">
          <mxGeometry width="50" height="50" relative="1" as="geometry">
            <mxPoint x="404.5" y="390" as="sourcePoint" />
            <mxPoint x="404.5" y="370" as="targetPoint" />
          </mxGeometry>
        </mxCell>
        <mxCell id="Tb-grUAP6oXHrMeM2_LU-85" value="" style="endArrow=none;dashed=1;html=1;rounded=0;" parent="Tb-grUAP6oXHrMeM2_LU-1" edge="1">
          <mxGeometry width="50" height="50" relative="1" as="geometry">
            <mxPoint x="604.5" y="390" as="sourcePoint" />
            <mxPoint x="604.5" y="370" as="targetPoint" />
          </mxGeometry>
        </mxCell>
        <mxCell id="Tb-grUAP6oXHrMeM2_LU-86" value="" style="endArrow=none;dashed=1;html=1;rounded=0;" parent="Tb-grUAP6oXHrMeM2_LU-1" edge="1">
          <mxGeometry width="50" height="50" relative="1" as="geometry">
            <mxPoint x="404.5" y="510" as="sourcePoint" />
            <mxPoint x="404.5" y="490" as="targetPoint" />
          </mxGeometry>
        </mxCell>
        <mxCell id="Tb-grUAP6oXHrMeM2_LU-87" value="" style="endArrow=none;dashed=1;html=1;rounded=0;" parent="Tb-grUAP6oXHrMeM2_LU-1" edge="1">
          <mxGeometry width="50" height="50" relative="1" as="geometry">
            <mxPoint x="604.5" y="510" as="sourcePoint" />
            <mxPoint x="604.5" y="490" as="targetPoint" />
          </mxGeometry>
        </mxCell>
        <mxCell id="Tb-grUAP6oXHrMeM2_LU-88" value="" style="endArrow=none;dashed=1;html=1;rounded=0;" parent="Tb-grUAP6oXHrMeM2_LU-1" edge="1">
          <mxGeometry width="50" height="50" relative="1" as="geometry">
            <mxPoint x="205" y="510" as="sourcePoint" />
            <mxPoint x="205" y="490" as="targetPoint" />
          </mxGeometry>
        </mxCell>
        <mxCell id="Tb-grUAP6oXHrMeM2_LU-89" value="" style="endArrow=none;dashed=1;html=1;rounded=0;" parent="Tb-grUAP6oXHrMeM2_LU-1" edge="1">
          <mxGeometry width="50" height="50" relative="1" as="geometry">
            <mxPoint x="404.5" y="270" as="sourcePoint" />
            <mxPoint x="404.5" y="250" as="targetPoint" />
          </mxGeometry>
        </mxCell>
        <mxCell id="Tb-grUAP6oXHrMeM2_LU-90" value="" style="endArrow=none;dashed=1;html=1;rounded=0;" parent="Tb-grUAP6oXHrMeM2_LU-1" edge="1">
          <mxGeometry width="50" height="50" relative="1" as="geometry">
            <mxPoint x="205" y="630" as="sourcePoint" />
            <mxPoint x="205" y="610" as="targetPoint" />
          </mxGeometry>
        </mxCell>
        <mxCell id="Tb-grUAP6oXHrMeM2_LU-91" value="" style="endArrow=none;dashed=1;html=1;rounded=0;" parent="Tb-grUAP6oXHrMeM2_LU-1" edge="1">
          <mxGeometry width="50" height="50" relative="1" as="geometry">
            <mxPoint x="404.5" y="630" as="sourcePoint" />
            <mxPoint x="404.5" y="610" as="targetPoint" />
          </mxGeometry>
        </mxCell>
        <mxCell id="Tb-grUAP6oXHrMeM2_LU-92" value="" style="endArrow=none;dashed=1;html=1;rounded=0;" parent="Tb-grUAP6oXHrMeM2_LU-1" edge="1">
          <mxGeometry width="50" height="50" relative="1" as="geometry">
            <mxPoint x="604.5" y="630" as="sourcePoint" />
            <mxPoint x="604.5" y="610" as="targetPoint" />
          </mxGeometry>
        </mxCell>
        <mxCell id="Tb-grUAP6oXHrMeM2_LU-93" value="" style="endArrow=classic;html=1;rounded=0;exitX=1;exitY=0.308;exitDx=0;exitDy=0;exitPerimeter=0;" parent="Tb-grUAP6oXHrMeM2_LU-1" edge="1">
          <mxGeometry width="50" height="50" relative="1" as="geometry">
            <mxPoint x="210" y="650" as="sourcePoint" />
            <mxPoint x="400" y="650" as="targetPoint" />
          </mxGeometry>
        </mxCell>
        <mxCell id="Tb-grUAP6oXHrMeM2_LU-94" value="" style="endArrow=classic;html=1;rounded=0;exitX=1;exitY=0.308;exitDx=0;exitDy=0;exitPerimeter=0;" parent="Tb-grUAP6oXHrMeM2_LU-1" edge="1">
          <mxGeometry width="50" height="50" relative="1" as="geometry">
            <mxPoint x="410" y="650" as="sourcePoint" />
            <mxPoint x="600" y="650" as="targetPoint" />
          </mxGeometry>
        </mxCell>
        <mxCell id="Tb-grUAP6oXHrMeM2_LU-95" value="" style="endArrow=classic;html=1;rounded=0;exitX=1;exitY=0.308;exitDx=0;exitDy=0;exitPerimeter=0;" parent="Tb-grUAP6oXHrMeM2_LU-1" edge="1">
          <mxGeometry width="50" height="50" relative="1" as="geometry">
            <mxPoint x="610" y="650" as="sourcePoint" />
            <mxPoint x="780" y="650" as="targetPoint" />
          </mxGeometry>
        </mxCell>
        <mxCell id="Tb-grUAP6oXHrMeM2_LU-96" value="" style="endArrow=classic;html=1;rounded=0;entryX=1;entryY=1;entryDx=0;entryDy=-5;entryPerimeter=0;" parent="Tb-grUAP6oXHrMeM2_LU-1" edge="1">
          <mxGeometry width="50" height="50" relative="1" as="geometry">
            <mxPoint x="400" y="710" as="sourcePoint" />
            <mxPoint x="210" y="710" as="targetPoint" />
          </mxGeometry>
        </mxCell>
        <mxCell id="Tb-grUAP6oXHrMeM2_LU-97" value="Response" style="text;html=1;strokeColor=none;fillColor=none;align=center;verticalAlign=middle;whiteSpace=wrap;rounded=0;" parent="Tb-grUAP6oXHrMeM2_LU-1" vertex="1">
          <mxGeometry x="270" y="680" width="60" height="30" as="geometry" />
        </mxCell>
        <mxCell id="Tb-grUAP6oXHrMeM2_LU-98" value="" style="endArrow=classic;html=1;rounded=0;entryX=1;entryY=1;entryDx=0;entryDy=-5;entryPerimeter=0;" parent="Tb-grUAP6oXHrMeM2_LU-1" edge="1">
          <mxGeometry width="50" height="50" relative="1" as="geometry">
            <mxPoint x="600" y="710" as="sourcePoint" />
            <mxPoint x="410" y="710" as="targetPoint" />
          </mxGeometry>
        </mxCell>
        <mxCell id="Tb-grUAP6oXHrMeM2_LU-99" value="Response" style="text;html=1;strokeColor=none;fillColor=none;align=center;verticalAlign=middle;whiteSpace=wrap;rounded=0;" parent="Tb-grUAP6oXHrMeM2_LU-1" vertex="1">
          <mxGeometry x="470" y="680" width="60" height="30" as="geometry" />
        </mxCell>
        <mxCell id="Tb-grUAP6oXHrMeM2_LU-100" value="" style="endArrow=classic;html=1;rounded=0;entryX=1;entryY=1;entryDx=0;entryDy=-5;entryPerimeter=0;" parent="Tb-grUAP6oXHrMeM2_LU-1" edge="1">
          <mxGeometry width="50" height="50" relative="1" as="geometry">
            <mxPoint x="780" y="710" as="sourcePoint" />
            <mxPoint x="610" y="710" as="targetPoint" />
          </mxGeometry>
        </mxCell>
        <mxCell id="Tb-grUAP6oXHrMeM2_LU-101" value="Response" style="text;html=1;strokeColor=none;fillColor=none;align=center;verticalAlign=middle;whiteSpace=wrap;rounded=0;" parent="Tb-grUAP6oXHrMeM2_LU-1" vertex="1">
          <mxGeometry x="670" y="680" width="60" height="30" as="geometry" />
        </mxCell>
        <mxCell id="Tb-grUAP6oXHrMeM2_LU-102" value="" style="endArrow=none;dashed=1;html=1;rounded=0;" parent="Tb-grUAP6oXHrMeM2_LU-1" edge="1">
          <mxGeometry width="50" height="50" relative="1" as="geometry">
            <mxPoint x="55" y="900" as="sourcePoint" />
            <mxPoint x="54.5" y="160" as="targetPoint" />
          </mxGeometry>
        </mxCell>
        <mxCell id="Tb-grUAP6oXHrMeM2_LU-103" value="Get All Department" style="text;html=1;strokeColor=none;fillColor=none;align=center;verticalAlign=middle;whiteSpace=wrap;rounded=0;" parent="Tb-grUAP6oXHrMeM2_LU-1" vertex="1">
          <mxGeometry x="235" y="390" width="145" height="20" as="geometry" />
        </mxCell>
        <mxCell id="Tb-grUAP6oXHrMeM2_LU-104" value="getAllDepartment()" style="text;html=1;strokeColor=none;fillColor=none;align=center;verticalAlign=middle;whiteSpace=wrap;rounded=0;" parent="Tb-grUAP6oXHrMeM2_LU-1" vertex="1">
          <mxGeometry x="440" y="385" width="130" height="30" as="geometry" />
        </mxCell>
        <mxCell id="Tb-grUAP6oXHrMeM2_LU-105" value="findByDepartmentCode()" style="text;html=1;strokeColor=none;fillColor=none;align=center;verticalAlign=middle;whiteSpace=wrap;rounded=0;" parent="Tb-grUAP6oXHrMeM2_LU-1" vertex="1">
          <mxGeometry x="625" y="260" width="130" height="30" as="geometry" />
        </mxCell>
        <mxCell id="Tb-grUAP6oXHrMeM2_LU-106" value="findAll()" style="text;html=1;strokeColor=none;fillColor=none;align=center;verticalAlign=middle;whiteSpace=wrap;rounded=0;" parent="Tb-grUAP6oXHrMeM2_LU-1" vertex="1">
          <mxGeometry x="650" y="385" width="60" height="30" as="geometry" />
        </mxCell>
        <mxCell id="Tb-grUAP6oXHrMeM2_LU-107" value="Update Department by Code" style="text;html=1;strokeColor=none;fillColor=none;align=center;verticalAlign=middle;whiteSpace=wrap;rounded=0;" parent="Tb-grUAP6oXHrMeM2_LU-1" vertex="1">
          <mxGeometry x="225" y="500" width="160" height="30" as="geometry" />
        </mxCell>
        <mxCell id="Tb-grUAP6oXHrMeM2_LU-108" value="updateDepartment()" style="text;html=1;strokeColor=none;fillColor=none;align=center;verticalAlign=middle;whiteSpace=wrap;rounded=0;" parent="Tb-grUAP6oXHrMeM2_LU-1" vertex="1">
          <mxGeometry x="440" y="500" width="130" height="30" as="geometry" />
        </mxCell>
        <mxCell id="Tb-grUAP6oXHrMeM2_LU-109" value="findByDepartmentCode()" style="text;html=1;strokeColor=none;fillColor=none;align=center;verticalAlign=middle;whiteSpace=wrap;rounded=0;" parent="Tb-grUAP6oXHrMeM2_LU-1" vertex="1">
          <mxGeometry x="622.5" y="500" width="135" height="30" as="geometry" />
        </mxCell>
        <mxCell id="Tb-grUAP6oXHrMeM2_LU-110" value="Department Fetched Successfully" style="text;html=1;strokeColor=none;fillColor=none;align=center;verticalAlign=middle;whiteSpace=wrap;rounded=0;" parent="Tb-grUAP6oXHrMeM2_LU-1" vertex="1">
          <mxGeometry x="210" y="470" width="190" height="20" as="geometry" />
        </mxCell>
        <mxCell id="Tb-grUAP6oXHrMeM2_LU-111" value="Department Updated Successfully" style="text;html=1;strokeColor=none;fillColor=none;align=center;verticalAlign=middle;whiteSpace=wrap;rounded=0;" parent="Tb-grUAP6oXHrMeM2_LU-1" vertex="1">
          <mxGeometry x="210" y="590" width="190" height="20" as="geometry" />
        </mxCell>
        <mxCell id="Tb-grUAP6oXHrMeM2_LU-112" value="Delete Department by Code" style="text;html=1;strokeColor=none;fillColor=none;align=center;verticalAlign=middle;whiteSpace=wrap;rounded=0;" parent="Tb-grUAP6oXHrMeM2_LU-1" vertex="1">
          <mxGeometry x="220" y="620" width="160" height="30" as="geometry" />
        </mxCell>
        <mxCell id="Tb-grUAP6oXHrMeM2_LU-113" value="deleteDepartment()" style="text;html=1;strokeColor=none;fillColor=none;align=center;verticalAlign=middle;whiteSpace=wrap;rounded=0;" parent="Tb-grUAP6oXHrMeM2_LU-1" vertex="1">
          <mxGeometry x="440" y="620" width="130" height="30" as="geometry" />
        </mxCell>
        <mxCell id="Tb-grUAP6oXHrMeM2_LU-114" value="delete()" style="text;html=1;strokeColor=none;fillColor=none;align=center;verticalAlign=middle;whiteSpace=wrap;rounded=0;" parent="Tb-grUAP6oXHrMeM2_LU-1" vertex="1">
          <mxGeometry x="620" y="620" width="130" height="30" as="geometry" />
        </mxCell>
        <mxCell id="Tb-grUAP6oXHrMeM2_LU-115" value="Department deleted Successfully" style="text;html=1;strokeColor=none;fillColor=none;align=center;verticalAlign=middle;whiteSpace=wrap;rounded=0;" parent="Tb-grUAP6oXHrMeM2_LU-1" vertex="1">
          <mxGeometry x="225" y="710" width="180" height="30" as="geometry" />
        </mxCell>
        <mxCell id="Tb-grUAP6oXHrMeM2_LU-116" value="" style="endArrow=none;dashed=1;html=1;rounded=0;" parent="Tb-grUAP6oXHrMeM2_LU-1" edge="1">
          <mxGeometry width="50" height="50" relative="1" as="geometry">
            <mxPoint x="205" y="840" as="sourcePoint" />
            <mxPoint x="205" y="730" as="targetPoint" />
          </mxGeometry>
        </mxCell>
        <mxCell id="Tb-grUAP6oXHrMeM2_LU-117" value="" style="endArrow=classic;html=1;rounded=0;" parent="Tb-grUAP6oXHrMeM2_LU-1" edge="1">
          <mxGeometry width="50" height="50" relative="1" as="geometry">
            <mxPoint x="205" y="790" as="sourcePoint" />
            <mxPoint x="55" y="790" as="targetPoint" />
          </mxGeometry>
        </mxCell>
        <mxCell id="Tb-grUAP6oXHrMeM2_LU-118" value="Response" style="text;html=1;strokeColor=none;fillColor=none;align=center;verticalAlign=middle;whiteSpace=wrap;rounded=0;" parent="Tb-grUAP6oXHrMeM2_LU-1" vertex="1">
          <mxGeometry x="100" y="760" width="60" height="30" as="geometry" />
        </mxCell>
      </root>
    </mxGraphModel>
  </diagram>
  <diagram name="Organization Service" id="y7X5miomL5N7HtNXt4Oe">
    <mxGraphModel dx="1723" dy="865" grid="1" gridSize="10" guides="1" tooltips="1" connect="1" arrows="1" fold="1" page="1" pageScale="1" pageWidth="827" pageHeight="1169" math="0" shadow="0">
      <root>
        <mxCell id="AjBO_0sVAM2gwfkVPcpk-0" />
        <mxCell id="AjBO_0sVAM2gwfkVPcpk-1" parent="AjBO_0sVAM2gwfkVPcpk-0" />
        <mxCell id="AjBO_0sVAM2gwfkVPcpk-2" value="Actor" style="shape=umlActor;verticalLabelPosition=bottom;verticalAlign=top;html=1;outlineConnect=0;" parent="AjBO_0sVAM2gwfkVPcpk-1" vertex="1">
          <mxGeometry x="40" y="70" width="30" height="50" as="geometry" />
        </mxCell>
        <mxCell id="AjBO_0sVAM2gwfkVPcpk-3" value="Organization Controller" style="rounded=0;whiteSpace=wrap;html=1;" parent="AjBO_0sVAM2gwfkVPcpk-1" vertex="1">
          <mxGeometry x="140" y="80" width="140" height="40" as="geometry" />
        </mxCell>
        <mxCell id="AjBO_0sVAM2gwfkVPcpk-4" value="Organization Service" style="rounded=0;whiteSpace=wrap;html=1;" parent="AjBO_0sVAM2gwfkVPcpk-1" vertex="1">
          <mxGeometry x="340" y="80" width="140" height="40" as="geometry" />
        </mxCell>
        <mxCell id="AjBO_0sVAM2gwfkVPcpk-5" value="Organisation Repository" style="rounded=0;whiteSpace=wrap;html=1;" parent="AjBO_0sVAM2gwfkVPcpk-1" vertex="1">
          <mxGeometry x="540" y="80" width="140" height="40" as="geometry" />
        </mxCell>
        <mxCell id="AjBO_0sVAM2gwfkVPcpk-6" value="MySql DB" style="shape=cylinder3;whiteSpace=wrap;html=1;boundedLbl=1;backgroundOutline=1;size=15;" parent="AjBO_0sVAM2gwfkVPcpk-1" vertex="1">
          <mxGeometry x="740" y="80" width="70" height="70" as="geometry" />
        </mxCell>
        <mxCell id="AjBO_0sVAM2gwfkVPcpk-7" value="" style="html=1;points=[[0,0,0,0,5],[0,1,0,0,-5],[1,0,0,0,5],[1,1,0,0,-5]];perimeter=orthogonalPerimeter;outlineConnect=0;targetShapes=umlLifeline;portConstraint=eastwest;newEdgeStyle={&quot;curved&quot;:0,&quot;rounded&quot;:0};" parent="AjBO_0sVAM2gwfkVPcpk-1" vertex="1">
          <mxGeometry x="200" y="150" width="10" height="100" as="geometry" />
        </mxCell>
        <mxCell id="AjBO_0sVAM2gwfkVPcpk-8" value="" style="html=1;points=[[0,0,0,0,5],[0,1,0,0,-5],[1,0,0,0,5],[1,1,0,0,-5]];perimeter=orthogonalPerimeter;outlineConnect=0;targetShapes=umlLifeline;portConstraint=eastwest;newEdgeStyle={&quot;curved&quot;:0,&quot;rounded&quot;:0};" parent="AjBO_0sVAM2gwfkVPcpk-1" vertex="1">
          <mxGeometry x="205" y="180" width="10" height="40" as="geometry" />
        </mxCell>
        <mxCell id="AjBO_0sVAM2gwfkVPcpk-9" value="" style="html=1;points=[[0,0,0,0,5],[0,1,0,0,-5],[1,0,0,0,5],[1,1,0,0,-5]];perimeter=orthogonalPerimeter;outlineConnect=0;targetShapes=umlLifeline;portConstraint=eastwest;newEdgeStyle={&quot;curved&quot;:0,&quot;rounded&quot;:0};" parent="AjBO_0sVAM2gwfkVPcpk-1" vertex="1">
          <mxGeometry x="400" y="150" width="10" height="100" as="geometry" />
        </mxCell>
        <mxCell id="AjBO_0sVAM2gwfkVPcpk-10" value="" style="html=1;points=[[0,0,0,0,5],[0,1,0,0,-5],[1,0,0,0,5],[1,1,0,0,-5]];perimeter=orthogonalPerimeter;outlineConnect=0;targetShapes=umlLifeline;portConstraint=eastwest;newEdgeStyle={&quot;curved&quot;:0,&quot;rounded&quot;:0};" parent="AjBO_0sVAM2gwfkVPcpk-1" vertex="1">
          <mxGeometry x="600" y="150" width="10" height="100" as="geometry" />
        </mxCell>
        <mxCell id="AjBO_0sVAM2gwfkVPcpk-11" value="" style="endArrow=classic;html=1;rounded=0;" parent="AjBO_0sVAM2gwfkVPcpk-1" edge="1">
          <mxGeometry width="50" height="50" relative="1" as="geometry">
            <mxPoint x="210" y="169" as="sourcePoint" />
            <mxPoint x="400" y="169" as="targetPoint" />
            <Array as="points" />
          </mxGeometry>
        </mxCell>
        <mxCell id="AjBO_0sVAM2gwfkVPcpk-12" value="" style="endArrow=classic;html=1;rounded=0;" parent="AjBO_0sVAM2gwfkVPcpk-1" edge="1">
          <mxGeometry width="50" height="50" relative="1" as="geometry">
            <mxPoint x="400" y="230" as="sourcePoint" />
            <mxPoint x="210" y="230" as="targetPoint" />
          </mxGeometry>
        </mxCell>
        <mxCell id="AjBO_0sVAM2gwfkVPcpk-13" value="" style="endArrow=classic;html=1;rounded=0;" parent="AjBO_0sVAM2gwfkVPcpk-1" edge="1">
          <mxGeometry width="50" height="50" relative="1" as="geometry">
            <mxPoint x="780" y="230" as="sourcePoint" />
            <mxPoint x="610" y="230" as="targetPoint" />
          </mxGeometry>
        </mxCell>
        <mxCell id="AjBO_0sVAM2gwfkVPcpk-14" value="" style="endArrow=classic;html=1;rounded=0;exitX=1;exitY=0.308;exitDx=0;exitDy=0;exitPerimeter=0;" parent="AjBO_0sVAM2gwfkVPcpk-1" edge="1">
          <mxGeometry width="50" height="50" relative="1" as="geometry">
            <mxPoint x="410" y="169.99999999999997" as="sourcePoint" />
            <mxPoint x="600" y="169.99999999999997" as="targetPoint" />
          </mxGeometry>
        </mxCell>
        <mxCell id="AjBO_0sVAM2gwfkVPcpk-15" value="" style="endArrow=none;dashed=1;html=1;rounded=0;" parent="AjBO_0sVAM2gwfkVPcpk-1" edge="1">
          <mxGeometry width="50" height="50" relative="1" as="geometry">
            <mxPoint x="780" y="770" as="sourcePoint" />
            <mxPoint x="780" y="150" as="targetPoint" />
          </mxGeometry>
        </mxCell>
        <mxCell id="AjBO_0sVAM2gwfkVPcpk-16" value="" style="endArrow=classic;html=1;rounded=0;" parent="AjBO_0sVAM2gwfkVPcpk-1" source="AjBO_0sVAM2gwfkVPcpk-10" edge="1">
          <mxGeometry width="50" height="50" relative="1" as="geometry">
            <mxPoint x="620" y="169" as="sourcePoint" />
            <mxPoint x="780" y="169" as="targetPoint" />
            <Array as="points">
              <mxPoint x="700" y="169" />
            </Array>
          </mxGeometry>
        </mxCell>
        <mxCell id="AjBO_0sVAM2gwfkVPcpk-17" value="Adding Organization to DB" style="text;html=1;strokeColor=none;fillColor=none;align=center;verticalAlign=middle;whiteSpace=wrap;rounded=0;" parent="AjBO_0sVAM2gwfkVPcpk-1" vertex="1">
          <mxGeometry x="220" y="140" width="160" height="30" as="geometry" />
        </mxCell>
        <mxCell id="AjBO_0sVAM2gwfkVPcpk-18" value="saveOrganization()" style="text;html=1;strokeColor=none;fillColor=none;align=center;verticalAlign=middle;whiteSpace=wrap;rounded=0;" parent="AjBO_0sVAM2gwfkVPcpk-1" vertex="1">
          <mxGeometry x="450" y="140" width="110" height="30" as="geometry" />
        </mxCell>
        <mxCell id="AjBO_0sVAM2gwfkVPcpk-19" value="save()" style="text;html=1;strokeColor=none;fillColor=none;align=center;verticalAlign=middle;whiteSpace=wrap;rounded=0;" parent="AjBO_0sVAM2gwfkVPcpk-1" vertex="1">
          <mxGeometry x="650" y="140" width="60" height="30" as="geometry" />
        </mxCell>
        <mxCell id="AjBO_0sVAM2gwfkVPcpk-20" value="Response" style="text;html=1;strokeColor=none;fillColor=none;align=center;verticalAlign=middle;whiteSpace=wrap;rounded=0;" parent="AjBO_0sVAM2gwfkVPcpk-1" vertex="1">
          <mxGeometry x="270" y="200" width="60" height="30" as="geometry" />
        </mxCell>
        <mxCell id="AjBO_0sVAM2gwfkVPcpk-21" value="Response" style="text;html=1;strokeColor=none;fillColor=none;align=center;verticalAlign=middle;whiteSpace=wrap;rounded=0;" parent="AjBO_0sVAM2gwfkVPcpk-1" vertex="1">
          <mxGeometry x="475" y="200" width="60" height="30" as="geometry" />
        </mxCell>
        <mxCell id="AjBO_0sVAM2gwfkVPcpk-22" value="Response" style="text;html=1;strokeColor=none;fillColor=none;align=center;verticalAlign=middle;whiteSpace=wrap;rounded=0;" parent="AjBO_0sVAM2gwfkVPcpk-1" vertex="1">
          <mxGeometry x="660" y="200" width="60" height="30" as="geometry" />
        </mxCell>
        <mxCell id="AjBO_0sVAM2gwfkVPcpk-23" value="" style="html=1;points=[[0,0,0,0,5],[0,1,0,0,-5],[1,0,0,0,5],[1,1,0,0,-5]];perimeter=orthogonalPerimeter;outlineConnect=0;targetShapes=umlLifeline;portConstraint=eastwest;newEdgeStyle={&quot;curved&quot;:0,&quot;rounded&quot;:0};" parent="AjBO_0sVAM2gwfkVPcpk-1" vertex="1">
          <mxGeometry x="600" y="272.5" width="10" height="95" as="geometry" />
        </mxCell>
        <mxCell id="AjBO_0sVAM2gwfkVPcpk-24" value="" style="endArrow=classic;html=1;rounded=0;" parent="AjBO_0sVAM2gwfkVPcpk-1" source="AjBO_0sVAM2gwfkVPcpk-47" edge="1">
          <mxGeometry width="50" height="50" relative="1" as="geometry">
            <mxPoint x="220" y="290" as="sourcePoint" />
            <mxPoint x="400" y="290" as="targetPoint" />
          </mxGeometry>
        </mxCell>
        <mxCell id="AjBO_0sVAM2gwfkVPcpk-25" value="" style="endArrow=classic;html=1;rounded=0;" parent="AjBO_0sVAM2gwfkVPcpk-1" source="AjBO_0sVAM2gwfkVPcpk-49" edge="1">
          <mxGeometry width="50" height="50" relative="1" as="geometry">
            <mxPoint x="400" y="360.25" as="sourcePoint" />
            <mxPoint x="210" y="349.75" as="targetPoint" />
          </mxGeometry>
        </mxCell>
        <mxCell id="AjBO_0sVAM2gwfkVPcpk-26" value="" style="endArrow=classic;html=1;rounded=0;entryX=0;entryY=0.214;entryDx=0;entryDy=0;entryPerimeter=0;" parent="AjBO_0sVAM2gwfkVPcpk-1" edge="1">
          <mxGeometry width="50" height="50" relative="1" as="geometry">
            <mxPoint x="410" y="290.00000000000006" as="sourcePoint" />
            <mxPoint x="600" y="290.00000000000006" as="targetPoint" />
          </mxGeometry>
        </mxCell>
        <mxCell id="AjBO_0sVAM2gwfkVPcpk-27" value="" style="endArrow=classic;html=1;rounded=0;" parent="AjBO_0sVAM2gwfkVPcpk-1" edge="1">
          <mxGeometry width="50" height="50" relative="1" as="geometry">
            <mxPoint x="610" y="290" as="sourcePoint" />
            <mxPoint x="780" y="290" as="targetPoint" />
            <Array as="points">
              <mxPoint x="660" y="290" />
            </Array>
          </mxGeometry>
        </mxCell>
        <mxCell id="AjBO_0sVAM2gwfkVPcpk-28" value="" style="endArrow=classic;html=1;rounded=0;entryX=1;entryY=1;entryDx=0;entryDy=-5;entryPerimeter=0;" parent="AjBO_0sVAM2gwfkVPcpk-1" edge="1">
          <mxGeometry width="50" height="50" relative="1" as="geometry">
            <mxPoint x="600" y="350" as="sourcePoint" />
            <mxPoint x="410" y="350" as="targetPoint" />
          </mxGeometry>
        </mxCell>
        <mxCell id="AjBO_0sVAM2gwfkVPcpk-29" value="" style="endArrow=classic;html=1;rounded=0;" parent="AjBO_0sVAM2gwfkVPcpk-1" edge="1">
          <mxGeometry width="50" height="50" relative="1" as="geometry">
            <mxPoint x="780" y="350" as="sourcePoint" />
            <mxPoint x="610" y="350" as="targetPoint" />
          </mxGeometry>
        </mxCell>
        <mxCell id="AjBO_0sVAM2gwfkVPcpk-30" value="Response" style="text;html=1;strokeColor=none;fillColor=none;align=center;verticalAlign=middle;whiteSpace=wrap;rounded=0;" parent="AjBO_0sVAM2gwfkVPcpk-1" vertex="1">
          <mxGeometry x="270" y="320" width="60" height="30" as="geometry" />
        </mxCell>
        <mxCell id="AjBO_0sVAM2gwfkVPcpk-31" value="Response" style="text;html=1;strokeColor=none;fillColor=none;align=center;verticalAlign=middle;whiteSpace=wrap;rounded=0;" parent="AjBO_0sVAM2gwfkVPcpk-1" vertex="1">
          <mxGeometry x="480" y="320" width="60" height="30" as="geometry" />
        </mxCell>
        <mxCell id="AjBO_0sVAM2gwfkVPcpk-32" value="Get Organization by Code" style="text;html=1;strokeColor=none;fillColor=none;align=center;verticalAlign=middle;whiteSpace=wrap;rounded=0;" parent="AjBO_0sVAM2gwfkVPcpk-1" vertex="1">
          <mxGeometry x="215" y="270" width="175" height="20" as="geometry" />
        </mxCell>
        <mxCell id="AjBO_0sVAM2gwfkVPcpk-33" value="getOrganizationByCode()" style="text;html=1;strokeColor=none;fillColor=none;align=center;verticalAlign=middle;whiteSpace=wrap;rounded=0;" parent="AjBO_0sVAM2gwfkVPcpk-1" vertex="1">
          <mxGeometry x="430" y="265" width="160" height="30" as="geometry" />
        </mxCell>
        <mxCell id="AjBO_0sVAM2gwfkVPcpk-34" value="Response" style="text;html=1;strokeColor=none;fillColor=none;align=center;verticalAlign=middle;whiteSpace=wrap;rounded=0;" parent="AjBO_0sVAM2gwfkVPcpk-1" vertex="1">
          <mxGeometry x="660" y="320" width="60" height="30" as="geometry" />
        </mxCell>
        <mxCell id="AjBO_0sVAM2gwfkVPcpk-35" value="" style="endArrow=none;dashed=1;html=1;rounded=0;" parent="AjBO_0sVAM2gwfkVPcpk-1" edge="1">
          <mxGeometry width="50" height="50" relative="1" as="geometry">
            <mxPoint x="204.5" y="150" as="sourcePoint" />
            <mxPoint x="204.5" y="120" as="targetPoint" />
          </mxGeometry>
        </mxCell>
        <mxCell id="AjBO_0sVAM2gwfkVPcpk-36" value="" style="endArrow=none;dashed=1;html=1;rounded=0;" parent="AjBO_0sVAM2gwfkVPcpk-1" edge="1">
          <mxGeometry width="50" height="50" relative="1" as="geometry">
            <mxPoint x="404.5" y="150" as="sourcePoint" />
            <mxPoint x="404.5" y="120" as="targetPoint" />
          </mxGeometry>
        </mxCell>
        <mxCell id="AjBO_0sVAM2gwfkVPcpk-37" value="" style="endArrow=none;dashed=1;html=1;rounded=0;" parent="AjBO_0sVAM2gwfkVPcpk-1" edge="1">
          <mxGeometry width="50" height="50" relative="1" as="geometry">
            <mxPoint x="604.5" y="150" as="sourcePoint" />
            <mxPoint x="604.5" y="120" as="targetPoint" />
          </mxGeometry>
        </mxCell>
        <mxCell id="AjBO_0sVAM2gwfkVPcpk-38" value="Organization&amp;nbsp;Added Successfully" style="text;html=1;strokeColor=none;fillColor=none;align=center;verticalAlign=middle;whiteSpace=wrap;rounded=0;" parent="AjBO_0sVAM2gwfkVPcpk-1" vertex="1">
          <mxGeometry x="210" y="230" width="185" height="30" as="geometry" />
        </mxCell>
        <mxCell id="AjBO_0sVAM2gwfkVPcpk-39" value="" style="endArrow=none;dashed=1;html=1;rounded=0;" parent="AjBO_0sVAM2gwfkVPcpk-1" source="AjBO_0sVAM2gwfkVPcpk-47" edge="1">
          <mxGeometry width="50" height="50" relative="1" as="geometry">
            <mxPoint x="204.5" y="340" as="sourcePoint" />
            <mxPoint x="204.5" y="280" as="targetPoint" />
          </mxGeometry>
        </mxCell>
        <mxCell id="AjBO_0sVAM2gwfkVPcpk-40" value="" style="endArrow=none;dashed=1;html=1;rounded=0;" parent="AjBO_0sVAM2gwfkVPcpk-1" source="AjBO_0sVAM2gwfkVPcpk-49" edge="1">
          <mxGeometry width="50" height="50" relative="1" as="geometry">
            <mxPoint x="404.5" y="340" as="sourcePoint" />
            <mxPoint x="404.5" y="280" as="targetPoint" />
            <Array as="points" />
          </mxGeometry>
        </mxCell>
        <mxCell id="AjBO_0sVAM2gwfkVPcpk-41" value="Client - Postman" style="text;html=1;strokeColor=none;fillColor=none;align=center;verticalAlign=middle;whiteSpace=wrap;rounded=0;" parent="AjBO_0sVAM2gwfkVPcpk-1" vertex="1">
          <mxGeometry x="10" y="140" width="110" height="30" as="geometry" />
        </mxCell>
        <mxCell id="AjBO_0sVAM2gwfkVPcpk-42" value="" style="endArrow=classic;html=1;rounded=0;" parent="AjBO_0sVAM2gwfkVPcpk-1" edge="1">
          <mxGeometry width="50" height="50" relative="1" as="geometry">
            <mxPoint x="55" y="190" as="sourcePoint" />
            <mxPoint x="200" y="190" as="targetPoint" />
          </mxGeometry>
        </mxCell>
        <mxCell id="AjBO_0sVAM2gwfkVPcpk-43" value="Request" style="text;html=1;strokeColor=none;fillColor=none;align=center;verticalAlign=middle;whiteSpace=wrap;rounded=0;" parent="AjBO_0sVAM2gwfkVPcpk-1" vertex="1">
          <mxGeometry x="100" y="170" width="60" height="20" as="geometry" />
        </mxCell>
        <mxCell id="AjBO_0sVAM2gwfkVPcpk-44" value="Organization&amp;nbsp;Fetched Successfully" style="text;html=1;strokeColor=none;fillColor=none;align=center;verticalAlign=middle;whiteSpace=wrap;rounded=0;" parent="AjBO_0sVAM2gwfkVPcpk-1" vertex="1">
          <mxGeometry x="210" y="350" width="190" height="30" as="geometry" />
        </mxCell>
        <mxCell id="AjBO_0sVAM2gwfkVPcpk-45" value="" style="endArrow=classic;html=1;rounded=0;" parent="AjBO_0sVAM2gwfkVPcpk-1" edge="1">
          <mxGeometry width="50" height="50" relative="1" as="geometry">
            <mxPoint x="600" y="230" as="sourcePoint" />
            <mxPoint x="410" y="230" as="targetPoint" />
          </mxGeometry>
        </mxCell>
        <mxCell id="AjBO_0sVAM2gwfkVPcpk-46" value="" style="endArrow=none;dashed=1;html=1;rounded=0;" parent="AjBO_0sVAM2gwfkVPcpk-1" target="AjBO_0sVAM2gwfkVPcpk-47" edge="1">
          <mxGeometry width="50" height="50" relative="1" as="geometry">
            <mxPoint x="204.5" y="340" as="sourcePoint" />
            <mxPoint x="204.5" y="280" as="targetPoint" />
          </mxGeometry>
        </mxCell>
        <mxCell id="AjBO_0sVAM2gwfkVPcpk-47" value="" style="html=1;points=[[0,0,0,0,5],[0,1,0,0,-5],[1,0,0,0,5],[1,1,0,0,-5]];perimeter=orthogonalPerimeter;outlineConnect=0;targetShapes=umlLifeline;portConstraint=eastwest;newEdgeStyle={&quot;curved&quot;:0,&quot;rounded&quot;:0};" parent="AjBO_0sVAM2gwfkVPcpk-1" vertex="1">
          <mxGeometry x="200" y="270" width="10" height="100" as="geometry" />
        </mxCell>
        <mxCell id="AjBO_0sVAM2gwfkVPcpk-48" value="" style="endArrow=none;dashed=1;html=1;rounded=0;" parent="AjBO_0sVAM2gwfkVPcpk-1" target="AjBO_0sVAM2gwfkVPcpk-49" edge="1">
          <mxGeometry width="50" height="50" relative="1" as="geometry">
            <mxPoint x="404.5" y="340" as="sourcePoint" />
            <mxPoint x="404.5" y="280" as="targetPoint" />
            <Array as="points">
              <mxPoint x="404.5" y="310" />
            </Array>
          </mxGeometry>
        </mxCell>
        <mxCell id="AjBO_0sVAM2gwfkVPcpk-49" value="" style="html=1;points=[[0,0,0,0,5],[0,1,0,0,-5],[1,0,0,0,5],[1,1,0,0,-5]];perimeter=orthogonalPerimeter;outlineConnect=0;targetShapes=umlLifeline;portConstraint=eastwest;newEdgeStyle={&quot;curved&quot;:0,&quot;rounded&quot;:0};" parent="AjBO_0sVAM2gwfkVPcpk-1" vertex="1">
          <mxGeometry x="400" y="270" width="10" height="100" as="geometry" />
        </mxCell>
        <mxCell id="AjBO_0sVAM2gwfkVPcpk-50" value="" style="html=1;points=[[0,0,0,0,5],[0,1,0,0,-5],[1,0,0,0,5],[1,1,0,0,-5]];perimeter=orthogonalPerimeter;outlineConnect=0;targetShapes=umlLifeline;portConstraint=eastwest;newEdgeStyle={&quot;curved&quot;:0,&quot;rounded&quot;:0};" parent="AjBO_0sVAM2gwfkVPcpk-1" vertex="1">
          <mxGeometry x="205" y="302.5" width="10" height="40" as="geometry" />
        </mxCell>
        <mxCell id="AjBO_0sVAM2gwfkVPcpk-51" value="" style="endArrow=none;dashed=1;html=1;rounded=0;" parent="AjBO_0sVAM2gwfkVPcpk-1" edge="1">
          <mxGeometry width="50" height="50" relative="1" as="geometry">
            <mxPoint x="205" y="270" as="sourcePoint" />
            <mxPoint x="205" y="250" as="targetPoint" />
          </mxGeometry>
        </mxCell>
        <mxCell id="AjBO_0sVAM2gwfkVPcpk-52" value="" style="endArrow=none;dashed=1;html=1;rounded=0;" parent="AjBO_0sVAM2gwfkVPcpk-1" edge="1">
          <mxGeometry width="50" height="50" relative="1" as="geometry">
            <mxPoint x="604.5" y="270" as="sourcePoint" />
            <mxPoint x="604.5" y="250" as="targetPoint" />
          </mxGeometry>
        </mxCell>
        <mxCell id="AjBO_0sVAM2gwfkVPcpk-53" value="" style="html=1;points=[[0,0,0,0,5],[0,1,0,0,-5],[1,0,0,0,5],[1,1,0,0,-5]];perimeter=orthogonalPerimeter;outlineConnect=0;targetShapes=umlLifeline;portConstraint=eastwest;newEdgeStyle={&quot;curved&quot;:0,&quot;rounded&quot;:0};" parent="AjBO_0sVAM2gwfkVPcpk-1" vertex="1">
          <mxGeometry x="200" y="390" width="10" height="100" as="geometry" />
        </mxCell>
        <mxCell id="AjBO_0sVAM2gwfkVPcpk-54" value="" style="html=1;points=[[0,0,0,0,5],[0,1,0,0,-5],[1,0,0,0,5],[1,1,0,0,-5]];perimeter=orthogonalPerimeter;outlineConnect=0;targetShapes=umlLifeline;portConstraint=eastwest;newEdgeStyle={&quot;curved&quot;:0,&quot;rounded&quot;:0};" parent="AjBO_0sVAM2gwfkVPcpk-1" vertex="1">
          <mxGeometry x="205" y="422.5" width="10" height="40" as="geometry" />
        </mxCell>
        <mxCell id="AjBO_0sVAM2gwfkVPcpk-55" value="" style="html=1;points=[[0,0,0,0,5],[0,1,0,0,-5],[1,0,0,0,5],[1,1,0,0,-5]];perimeter=orthogonalPerimeter;outlineConnect=0;targetShapes=umlLifeline;portConstraint=eastwest;newEdgeStyle={&quot;curved&quot;:0,&quot;rounded&quot;:0};" parent="AjBO_0sVAM2gwfkVPcpk-1" vertex="1">
          <mxGeometry x="200" y="510" width="10" height="100" as="geometry" />
        </mxCell>
        <mxCell id="AjBO_0sVAM2gwfkVPcpk-56" value="" style="html=1;points=[[0,0,0,0,5],[0,1,0,0,-5],[1,0,0,0,5],[1,1,0,0,-5]];perimeter=orthogonalPerimeter;outlineConnect=0;targetShapes=umlLifeline;portConstraint=eastwest;newEdgeStyle={&quot;curved&quot;:0,&quot;rounded&quot;:0};" parent="AjBO_0sVAM2gwfkVPcpk-1" vertex="1">
          <mxGeometry x="205" y="542.5" width="10" height="40" as="geometry" />
        </mxCell>
        <mxCell id="AjBO_0sVAM2gwfkVPcpk-57" value="" style="html=1;points=[[0,0,0,0,5],[0,1,0,0,-5],[1,0,0,0,5],[1,1,0,0,-5]];perimeter=orthogonalPerimeter;outlineConnect=0;targetShapes=umlLifeline;portConstraint=eastwest;newEdgeStyle={&quot;curved&quot;:0,&quot;rounded&quot;:0};" parent="AjBO_0sVAM2gwfkVPcpk-1" vertex="1">
          <mxGeometry x="400" y="390" width="10" height="100" as="geometry" />
        </mxCell>
        <mxCell id="AjBO_0sVAM2gwfkVPcpk-58" value="" style="html=1;points=[[0,0,0,0,5],[0,1,0,0,-5],[1,0,0,0,5],[1,1,0,0,-5]];perimeter=orthogonalPerimeter;outlineConnect=0;targetShapes=umlLifeline;portConstraint=eastwest;newEdgeStyle={&quot;curved&quot;:0,&quot;rounded&quot;:0};" parent="AjBO_0sVAM2gwfkVPcpk-1" vertex="1">
          <mxGeometry x="400" y="510" width="10" height="100" as="geometry" />
        </mxCell>
        <mxCell id="AjBO_0sVAM2gwfkVPcpk-59" value="" style="html=1;points=[[0,0,0,0,5],[0,1,0,0,-5],[1,0,0,0,5],[1,1,0,0,-5]];perimeter=orthogonalPerimeter;outlineConnect=0;targetShapes=umlLifeline;portConstraint=eastwest;newEdgeStyle={&quot;curved&quot;:0,&quot;rounded&quot;:0};" parent="AjBO_0sVAM2gwfkVPcpk-1" vertex="1">
          <mxGeometry x="600" y="390" width="10" height="100" as="geometry" />
        </mxCell>
        <mxCell id="AjBO_0sVAM2gwfkVPcpk-60" value="" style="html=1;points=[[0,0,0,0,5],[0,1,0,0,-5],[1,0,0,0,5],[1,1,0,0,-5]];perimeter=orthogonalPerimeter;outlineConnect=0;targetShapes=umlLifeline;portConstraint=eastwest;newEdgeStyle={&quot;curved&quot;:0,&quot;rounded&quot;:0};" parent="AjBO_0sVAM2gwfkVPcpk-1" vertex="1">
          <mxGeometry x="600" y="510" width="10" height="100" as="geometry" />
        </mxCell>
        <mxCell id="AjBO_0sVAM2gwfkVPcpk-61" value="" style="endArrow=classic;html=1;rounded=0;exitX=1;exitY=0.308;exitDx=0;exitDy=0;exitPerimeter=0;" parent="AjBO_0sVAM2gwfkVPcpk-1" edge="1">
          <mxGeometry width="50" height="50" relative="1" as="geometry">
            <mxPoint x="210" y="410" as="sourcePoint" />
            <mxPoint x="400" y="410" as="targetPoint" />
          </mxGeometry>
        </mxCell>
        <mxCell id="AjBO_0sVAM2gwfkVPcpk-62" value="" style="endArrow=classic;html=1;rounded=0;exitX=1;exitY=0.308;exitDx=0;exitDy=0;exitPerimeter=0;" parent="AjBO_0sVAM2gwfkVPcpk-1" edge="1">
          <mxGeometry width="50" height="50" relative="1" as="geometry">
            <mxPoint x="410" y="410" as="sourcePoint" />
            <mxPoint x="600" y="410" as="targetPoint" />
          </mxGeometry>
        </mxCell>
        <mxCell id="AjBO_0sVAM2gwfkVPcpk-63" value="" style="endArrow=classic;html=1;rounded=0;exitX=1;exitY=0.308;exitDx=0;exitDy=0;exitPerimeter=0;" parent="AjBO_0sVAM2gwfkVPcpk-1" edge="1">
          <mxGeometry width="50" height="50" relative="1" as="geometry">
            <mxPoint x="610" y="410" as="sourcePoint" />
            <mxPoint x="780" y="410" as="targetPoint" />
          </mxGeometry>
        </mxCell>
        <mxCell id="AjBO_0sVAM2gwfkVPcpk-64" value="" style="endArrow=classic;html=1;rounded=0;exitX=1;exitY=0.308;exitDx=0;exitDy=0;exitPerimeter=0;" parent="AjBO_0sVAM2gwfkVPcpk-1" edge="1">
          <mxGeometry width="50" height="50" relative="1" as="geometry">
            <mxPoint x="210" y="530" as="sourcePoint" />
            <mxPoint x="400" y="530" as="targetPoint" />
          </mxGeometry>
        </mxCell>
        <mxCell id="AjBO_0sVAM2gwfkVPcpk-65" value="" style="endArrow=classic;html=1;rounded=0;exitX=1;exitY=0.308;exitDx=0;exitDy=0;exitPerimeter=0;" parent="AjBO_0sVAM2gwfkVPcpk-1" edge="1">
          <mxGeometry width="50" height="50" relative="1" as="geometry">
            <mxPoint x="410" y="530" as="sourcePoint" />
            <mxPoint x="600" y="530" as="targetPoint" />
          </mxGeometry>
        </mxCell>
        <mxCell id="AjBO_0sVAM2gwfkVPcpk-66" value="" style="endArrow=classic;html=1;rounded=0;exitX=1;exitY=0.308;exitDx=0;exitDy=0;exitPerimeter=0;" parent="AjBO_0sVAM2gwfkVPcpk-1" edge="1">
          <mxGeometry width="50" height="50" relative="1" as="geometry">
            <mxPoint x="610" y="530" as="sourcePoint" />
            <mxPoint x="780" y="530" as="targetPoint" />
          </mxGeometry>
        </mxCell>
        <mxCell id="AjBO_0sVAM2gwfkVPcpk-67" value="" style="endArrow=classic;html=1;rounded=0;entryX=1;entryY=1;entryDx=0;entryDy=-5;entryPerimeter=0;" parent="AjBO_0sVAM2gwfkVPcpk-1" edge="1">
          <mxGeometry width="50" height="50" relative="1" as="geometry">
            <mxPoint x="400" y="470" as="sourcePoint" />
            <mxPoint x="210" y="470" as="targetPoint" />
          </mxGeometry>
        </mxCell>
        <mxCell id="AjBO_0sVAM2gwfkVPcpk-68" value="" style="endArrow=classic;html=1;rounded=0;entryX=1;entryY=1;entryDx=0;entryDy=-5;entryPerimeter=0;" parent="AjBO_0sVAM2gwfkVPcpk-1" edge="1">
          <mxGeometry width="50" height="50" relative="1" as="geometry">
            <mxPoint x="600" y="470" as="sourcePoint" />
            <mxPoint x="410" y="470" as="targetPoint" />
          </mxGeometry>
        </mxCell>
        <mxCell id="AjBO_0sVAM2gwfkVPcpk-69" value="" style="endArrow=classic;html=1;rounded=0;entryX=1;entryY=1;entryDx=0;entryDy=-5;entryPerimeter=0;" parent="AjBO_0sVAM2gwfkVPcpk-1" edge="1">
          <mxGeometry width="50" height="50" relative="1" as="geometry">
            <mxPoint x="780" y="470" as="sourcePoint" />
            <mxPoint x="610" y="470" as="targetPoint" />
          </mxGeometry>
        </mxCell>
        <mxCell id="AjBO_0sVAM2gwfkVPcpk-70" value="" style="endArrow=classic;html=1;rounded=0;entryX=1;entryY=1;entryDx=0;entryDy=-5;entryPerimeter=0;" parent="AjBO_0sVAM2gwfkVPcpk-1" edge="1">
          <mxGeometry width="50" height="50" relative="1" as="geometry">
            <mxPoint x="400" y="590" as="sourcePoint" />
            <mxPoint x="210" y="590" as="targetPoint" />
          </mxGeometry>
        </mxCell>
        <mxCell id="AjBO_0sVAM2gwfkVPcpk-71" value="" style="endArrow=classic;html=1;rounded=0;entryX=1;entryY=1;entryDx=0;entryDy=-5;entryPerimeter=0;" parent="AjBO_0sVAM2gwfkVPcpk-1" edge="1">
          <mxGeometry width="50" height="50" relative="1" as="geometry">
            <mxPoint x="600" y="590" as="sourcePoint" />
            <mxPoint x="410" y="590" as="targetPoint" />
          </mxGeometry>
        </mxCell>
        <mxCell id="AjBO_0sVAM2gwfkVPcpk-72" value="" style="endArrow=classic;html=1;rounded=0;entryX=1;entryY=1;entryDx=0;entryDy=-5;entryPerimeter=0;" parent="AjBO_0sVAM2gwfkVPcpk-1" edge="1">
          <mxGeometry width="50" height="50" relative="1" as="geometry">
            <mxPoint x="780" y="590" as="sourcePoint" />
            <mxPoint x="610" y="590" as="targetPoint" />
          </mxGeometry>
        </mxCell>
        <mxCell id="AjBO_0sVAM2gwfkVPcpk-73" value="Response" style="text;html=1;strokeColor=none;fillColor=none;align=center;verticalAlign=middle;whiteSpace=wrap;rounded=0;" parent="AjBO_0sVAM2gwfkVPcpk-1" vertex="1">
          <mxGeometry x="270" y="560" width="60" height="30" as="geometry" />
        </mxCell>
        <mxCell id="AjBO_0sVAM2gwfkVPcpk-74" value="Response" style="text;html=1;strokeColor=none;fillColor=none;align=center;verticalAlign=middle;whiteSpace=wrap;rounded=0;" parent="AjBO_0sVAM2gwfkVPcpk-1" vertex="1">
          <mxGeometry x="270" y="440" width="60" height="30" as="geometry" />
        </mxCell>
        <mxCell id="AjBO_0sVAM2gwfkVPcpk-75" value="Response" style="text;html=1;strokeColor=none;fillColor=none;align=center;verticalAlign=middle;whiteSpace=wrap;rounded=0;" parent="AjBO_0sVAM2gwfkVPcpk-1" vertex="1">
          <mxGeometry x="475" y="440" width="60" height="30" as="geometry" />
        </mxCell>
        <mxCell id="AjBO_0sVAM2gwfkVPcpk-76" value="Response" style="text;html=1;strokeColor=none;fillColor=none;align=center;verticalAlign=middle;whiteSpace=wrap;rounded=0;" parent="AjBO_0sVAM2gwfkVPcpk-1" vertex="1">
          <mxGeometry x="660" y="440" width="60" height="30" as="geometry" />
        </mxCell>
        <mxCell id="AjBO_0sVAM2gwfkVPcpk-77" value="Response" style="text;html=1;strokeColor=none;fillColor=none;align=center;verticalAlign=middle;whiteSpace=wrap;rounded=0;" parent="AjBO_0sVAM2gwfkVPcpk-1" vertex="1">
          <mxGeometry x="660" y="560" width="60" height="30" as="geometry" />
        </mxCell>
        <mxCell id="AjBO_0sVAM2gwfkVPcpk-78" value="Response" style="text;html=1;strokeColor=none;fillColor=none;align=center;verticalAlign=middle;whiteSpace=wrap;rounded=0;" parent="AjBO_0sVAM2gwfkVPcpk-1" vertex="1">
          <mxGeometry x="475" y="560" width="60" height="30" as="geometry" />
        </mxCell>
        <mxCell id="AjBO_0sVAM2gwfkVPcpk-79" value="" style="html=1;points=[[0,0,0,0,5],[0,1,0,0,-5],[1,0,0,0,5],[1,1,0,0,-5]];perimeter=orthogonalPerimeter;outlineConnect=0;targetShapes=umlLifeline;portConstraint=eastwest;newEdgeStyle={&quot;curved&quot;:0,&quot;rounded&quot;:0};" parent="AjBO_0sVAM2gwfkVPcpk-1" vertex="1">
          <mxGeometry x="200" y="630" width="10" height="100" as="geometry" />
        </mxCell>
        <mxCell id="AjBO_0sVAM2gwfkVPcpk-80" value="" style="html=1;points=[[0,0,0,0,5],[0,1,0,0,-5],[1,0,0,0,5],[1,1,0,0,-5]];perimeter=orthogonalPerimeter;outlineConnect=0;targetShapes=umlLifeline;portConstraint=eastwest;newEdgeStyle={&quot;curved&quot;:0,&quot;rounded&quot;:0};" parent="AjBO_0sVAM2gwfkVPcpk-1" vertex="1">
          <mxGeometry x="205" y="662.5" width="10" height="40" as="geometry" />
        </mxCell>
        <mxCell id="AjBO_0sVAM2gwfkVPcpk-81" value="" style="html=1;points=[[0,0,0,0,5],[0,1,0,0,-5],[1,0,0,0,5],[1,1,0,0,-5]];perimeter=orthogonalPerimeter;outlineConnect=0;targetShapes=umlLifeline;portConstraint=eastwest;newEdgeStyle={&quot;curved&quot;:0,&quot;rounded&quot;:0};" parent="AjBO_0sVAM2gwfkVPcpk-1" vertex="1">
          <mxGeometry x="400" y="630" width="10" height="100" as="geometry" />
        </mxCell>
        <mxCell id="AjBO_0sVAM2gwfkVPcpk-82" value="" style="html=1;points=[[0,0,0,0,5],[0,1,0,0,-5],[1,0,0,0,5],[1,1,0,0,-5]];perimeter=orthogonalPerimeter;outlineConnect=0;targetShapes=umlLifeline;portConstraint=eastwest;newEdgeStyle={&quot;curved&quot;:0,&quot;rounded&quot;:0};" parent="AjBO_0sVAM2gwfkVPcpk-1" vertex="1">
          <mxGeometry x="600" y="630" width="10" height="100" as="geometry" />
        </mxCell>
        <mxCell id="AjBO_0sVAM2gwfkVPcpk-83" value="" style="endArrow=none;dashed=1;html=1;rounded=0;" parent="AjBO_0sVAM2gwfkVPcpk-1" edge="1">
          <mxGeometry width="50" height="50" relative="1" as="geometry">
            <mxPoint x="205" y="390" as="sourcePoint" />
            <mxPoint x="205" y="370" as="targetPoint" />
          </mxGeometry>
        </mxCell>
        <mxCell id="AjBO_0sVAM2gwfkVPcpk-84" value="" style="endArrow=none;dashed=1;html=1;rounded=0;" parent="AjBO_0sVAM2gwfkVPcpk-1" edge="1">
          <mxGeometry width="50" height="50" relative="1" as="geometry">
            <mxPoint x="404.5" y="390" as="sourcePoint" />
            <mxPoint x="404.5" y="370" as="targetPoint" />
          </mxGeometry>
        </mxCell>
        <mxCell id="AjBO_0sVAM2gwfkVPcpk-85" value="" style="endArrow=none;dashed=1;html=1;rounded=0;" parent="AjBO_0sVAM2gwfkVPcpk-1" edge="1">
          <mxGeometry width="50" height="50" relative="1" as="geometry">
            <mxPoint x="604.5" y="390" as="sourcePoint" />
            <mxPoint x="604.5" y="370" as="targetPoint" />
          </mxGeometry>
        </mxCell>
        <mxCell id="AjBO_0sVAM2gwfkVPcpk-86" value="" style="endArrow=none;dashed=1;html=1;rounded=0;" parent="AjBO_0sVAM2gwfkVPcpk-1" edge="1">
          <mxGeometry width="50" height="50" relative="1" as="geometry">
            <mxPoint x="404.5" y="510" as="sourcePoint" />
            <mxPoint x="404.5" y="490" as="targetPoint" />
          </mxGeometry>
        </mxCell>
        <mxCell id="AjBO_0sVAM2gwfkVPcpk-87" value="" style="endArrow=none;dashed=1;html=1;rounded=0;" parent="AjBO_0sVAM2gwfkVPcpk-1" edge="1">
          <mxGeometry width="50" height="50" relative="1" as="geometry">
            <mxPoint x="604.5" y="510" as="sourcePoint" />
            <mxPoint x="604.5" y="490" as="targetPoint" />
          </mxGeometry>
        </mxCell>
        <mxCell id="AjBO_0sVAM2gwfkVPcpk-88" value="" style="endArrow=none;dashed=1;html=1;rounded=0;" parent="AjBO_0sVAM2gwfkVPcpk-1" edge="1">
          <mxGeometry width="50" height="50" relative="1" as="geometry">
            <mxPoint x="205" y="510" as="sourcePoint" />
            <mxPoint x="205" y="490" as="targetPoint" />
          </mxGeometry>
        </mxCell>
        <mxCell id="AjBO_0sVAM2gwfkVPcpk-89" value="" style="endArrow=none;dashed=1;html=1;rounded=0;" parent="AjBO_0sVAM2gwfkVPcpk-1" edge="1">
          <mxGeometry width="50" height="50" relative="1" as="geometry">
            <mxPoint x="404.5" y="270" as="sourcePoint" />
            <mxPoint x="404.5" y="250" as="targetPoint" />
          </mxGeometry>
        </mxCell>
        <mxCell id="AjBO_0sVAM2gwfkVPcpk-90" value="" style="endArrow=none;dashed=1;html=1;rounded=0;" parent="AjBO_0sVAM2gwfkVPcpk-1" edge="1">
          <mxGeometry width="50" height="50" relative="1" as="geometry">
            <mxPoint x="205" y="630" as="sourcePoint" />
            <mxPoint x="205" y="610" as="targetPoint" />
          </mxGeometry>
        </mxCell>
        <mxCell id="AjBO_0sVAM2gwfkVPcpk-91" value="" style="endArrow=none;dashed=1;html=1;rounded=0;" parent="AjBO_0sVAM2gwfkVPcpk-1" edge="1">
          <mxGeometry width="50" height="50" relative="1" as="geometry">
            <mxPoint x="404.5" y="630" as="sourcePoint" />
            <mxPoint x="404.5" y="610" as="targetPoint" />
          </mxGeometry>
        </mxCell>
        <mxCell id="AjBO_0sVAM2gwfkVPcpk-92" value="" style="endArrow=none;dashed=1;html=1;rounded=0;" parent="AjBO_0sVAM2gwfkVPcpk-1" edge="1">
          <mxGeometry width="50" height="50" relative="1" as="geometry">
            <mxPoint x="604.5" y="630" as="sourcePoint" />
            <mxPoint x="604.5" y="610" as="targetPoint" />
          </mxGeometry>
        </mxCell>
        <mxCell id="AjBO_0sVAM2gwfkVPcpk-93" value="" style="endArrow=classic;html=1;rounded=0;exitX=1;exitY=0.308;exitDx=0;exitDy=0;exitPerimeter=0;" parent="AjBO_0sVAM2gwfkVPcpk-1" edge="1">
          <mxGeometry width="50" height="50" relative="1" as="geometry">
            <mxPoint x="210" y="650" as="sourcePoint" />
            <mxPoint x="400" y="650" as="targetPoint" />
          </mxGeometry>
        </mxCell>
        <mxCell id="AjBO_0sVAM2gwfkVPcpk-94" value="" style="endArrow=classic;html=1;rounded=0;exitX=1;exitY=0.308;exitDx=0;exitDy=0;exitPerimeter=0;" parent="AjBO_0sVAM2gwfkVPcpk-1" edge="1">
          <mxGeometry width="50" height="50" relative="1" as="geometry">
            <mxPoint x="410" y="650" as="sourcePoint" />
            <mxPoint x="600" y="650" as="targetPoint" />
          </mxGeometry>
        </mxCell>
        <mxCell id="AjBO_0sVAM2gwfkVPcpk-95" value="" style="endArrow=classic;html=1;rounded=0;exitX=1;exitY=0.308;exitDx=0;exitDy=0;exitPerimeter=0;" parent="AjBO_0sVAM2gwfkVPcpk-1" edge="1">
          <mxGeometry width="50" height="50" relative="1" as="geometry">
            <mxPoint x="610" y="650" as="sourcePoint" />
            <mxPoint x="780" y="650" as="targetPoint" />
          </mxGeometry>
        </mxCell>
        <mxCell id="AjBO_0sVAM2gwfkVPcpk-96" value="" style="endArrow=classic;html=1;rounded=0;entryX=1;entryY=1;entryDx=0;entryDy=-5;entryPerimeter=0;" parent="AjBO_0sVAM2gwfkVPcpk-1" edge="1">
          <mxGeometry width="50" height="50" relative="1" as="geometry">
            <mxPoint x="400" y="710" as="sourcePoint" />
            <mxPoint x="210" y="710" as="targetPoint" />
          </mxGeometry>
        </mxCell>
        <mxCell id="AjBO_0sVAM2gwfkVPcpk-97" value="Response" style="text;html=1;strokeColor=none;fillColor=none;align=center;verticalAlign=middle;whiteSpace=wrap;rounded=0;" parent="AjBO_0sVAM2gwfkVPcpk-1" vertex="1">
          <mxGeometry x="270" y="680" width="60" height="30" as="geometry" />
        </mxCell>
        <mxCell id="AjBO_0sVAM2gwfkVPcpk-98" value="" style="endArrow=classic;html=1;rounded=0;entryX=1;entryY=1;entryDx=0;entryDy=-5;entryPerimeter=0;" parent="AjBO_0sVAM2gwfkVPcpk-1" edge="1">
          <mxGeometry width="50" height="50" relative="1" as="geometry">
            <mxPoint x="600" y="710" as="sourcePoint" />
            <mxPoint x="410" y="710" as="targetPoint" />
          </mxGeometry>
        </mxCell>
        <mxCell id="AjBO_0sVAM2gwfkVPcpk-99" value="Response" style="text;html=1;strokeColor=none;fillColor=none;align=center;verticalAlign=middle;whiteSpace=wrap;rounded=0;" parent="AjBO_0sVAM2gwfkVPcpk-1" vertex="1">
          <mxGeometry x="470" y="680" width="60" height="30" as="geometry" />
        </mxCell>
        <mxCell id="AjBO_0sVAM2gwfkVPcpk-100" value="" style="endArrow=classic;html=1;rounded=0;entryX=1;entryY=1;entryDx=0;entryDy=-5;entryPerimeter=0;" parent="AjBO_0sVAM2gwfkVPcpk-1" edge="1">
          <mxGeometry width="50" height="50" relative="1" as="geometry">
            <mxPoint x="780" y="710" as="sourcePoint" />
            <mxPoint x="610" y="710" as="targetPoint" />
          </mxGeometry>
        </mxCell>
        <mxCell id="AjBO_0sVAM2gwfkVPcpk-101" value="Response" style="text;html=1;strokeColor=none;fillColor=none;align=center;verticalAlign=middle;whiteSpace=wrap;rounded=0;" parent="AjBO_0sVAM2gwfkVPcpk-1" vertex="1">
          <mxGeometry x="670" y="680" width="60" height="30" as="geometry" />
        </mxCell>
        <mxCell id="AjBO_0sVAM2gwfkVPcpk-102" value="" style="endArrow=none;dashed=1;html=1;rounded=0;" parent="AjBO_0sVAM2gwfkVPcpk-1" edge="1">
          <mxGeometry width="50" height="50" relative="1" as="geometry">
            <mxPoint x="55" y="900" as="sourcePoint" />
            <mxPoint x="54.5" y="160" as="targetPoint" />
          </mxGeometry>
        </mxCell>
        <mxCell id="AjBO_0sVAM2gwfkVPcpk-103" value="Get All Organization" style="text;html=1;strokeColor=none;fillColor=none;align=center;verticalAlign=middle;whiteSpace=wrap;rounded=0;" parent="AjBO_0sVAM2gwfkVPcpk-1" vertex="1">
          <mxGeometry x="235" y="390" width="145" height="20" as="geometry" />
        </mxCell>
        <mxCell id="AjBO_0sVAM2gwfkVPcpk-104" value="getAllOrganization()" style="text;html=1;strokeColor=none;fillColor=none;align=center;verticalAlign=middle;whiteSpace=wrap;rounded=0;" parent="AjBO_0sVAM2gwfkVPcpk-1" vertex="1">
          <mxGeometry x="420" y="385" width="170" height="30" as="geometry" />
        </mxCell>
        <mxCell id="AjBO_0sVAM2gwfkVPcpk-105" value="findByOrganizationCode()" style="text;html=1;strokeColor=none;fillColor=none;align=center;verticalAlign=middle;whiteSpace=wrap;rounded=0;" parent="AjBO_0sVAM2gwfkVPcpk-1" vertex="1">
          <mxGeometry x="620" y="265" width="150" height="30" as="geometry" />
        </mxCell>
        <mxCell id="AjBO_0sVAM2gwfkVPcpk-106" value="findAll()" style="text;html=1;strokeColor=none;fillColor=none;align=center;verticalAlign=middle;whiteSpace=wrap;rounded=0;" parent="AjBO_0sVAM2gwfkVPcpk-1" vertex="1">
          <mxGeometry x="650" y="385" width="60" height="30" as="geometry" />
        </mxCell>
        <mxCell id="AjBO_0sVAM2gwfkVPcpk-107" value="Update Organization&amp;nbsp;by Code" style="text;html=1;strokeColor=none;fillColor=none;align=center;verticalAlign=middle;whiteSpace=wrap;rounded=0;" parent="AjBO_0sVAM2gwfkVPcpk-1" vertex="1">
          <mxGeometry x="220" y="500" width="165" height="30" as="geometry" />
        </mxCell>
        <mxCell id="AjBO_0sVAM2gwfkVPcpk-108" value="updateOrganization()" style="text;html=1;strokeColor=none;fillColor=none;align=center;verticalAlign=middle;whiteSpace=wrap;rounded=0;" parent="AjBO_0sVAM2gwfkVPcpk-1" vertex="1">
          <mxGeometry x="440" y="500" width="130" height="30" as="geometry" />
        </mxCell>
        <mxCell id="AjBO_0sVAM2gwfkVPcpk-109" value="findByOrganizationCode()" style="text;html=1;strokeColor=none;fillColor=none;align=center;verticalAlign=middle;whiteSpace=wrap;rounded=0;" parent="AjBO_0sVAM2gwfkVPcpk-1" vertex="1">
          <mxGeometry x="622.5" y="500" width="135" height="30" as="geometry" />
        </mxCell>
        <mxCell id="AjBO_0sVAM2gwfkVPcpk-110" value="Organization Fetched Successfully" style="text;html=1;strokeColor=none;fillColor=none;align=center;verticalAlign=middle;whiteSpace=wrap;rounded=0;" parent="AjBO_0sVAM2gwfkVPcpk-1" vertex="1">
          <mxGeometry x="210" y="470" width="190" height="20" as="geometry" />
        </mxCell>
        <mxCell id="AjBO_0sVAM2gwfkVPcpk-111" value="Organization&amp;nbsp;Updated Successfully" style="text;html=1;strokeColor=none;fillColor=none;align=center;verticalAlign=middle;whiteSpace=wrap;rounded=0;" parent="AjBO_0sVAM2gwfkVPcpk-1" vertex="1">
          <mxGeometry x="210" y="590" width="190" height="20" as="geometry" />
        </mxCell>
        <mxCell id="AjBO_0sVAM2gwfkVPcpk-112" value="Delete Organization&amp;nbsp;by Code" style="text;html=1;strokeColor=none;fillColor=none;align=center;verticalAlign=middle;whiteSpace=wrap;rounded=0;" parent="AjBO_0sVAM2gwfkVPcpk-1" vertex="1">
          <mxGeometry x="220" y="620" width="160" height="30" as="geometry" />
        </mxCell>
        <mxCell id="AjBO_0sVAM2gwfkVPcpk-113" value="deleteOrganization()" style="text;html=1;strokeColor=none;fillColor=none;align=center;verticalAlign=middle;whiteSpace=wrap;rounded=0;" parent="AjBO_0sVAM2gwfkVPcpk-1" vertex="1">
          <mxGeometry x="440" y="620" width="130" height="30" as="geometry" />
        </mxCell>
        <mxCell id="AjBO_0sVAM2gwfkVPcpk-114" value="delete()" style="text;html=1;strokeColor=none;fillColor=none;align=center;verticalAlign=middle;whiteSpace=wrap;rounded=0;" parent="AjBO_0sVAM2gwfkVPcpk-1" vertex="1">
          <mxGeometry x="620" y="620" width="130" height="30" as="geometry" />
        </mxCell>
        <mxCell id="AjBO_0sVAM2gwfkVPcpk-115" value="Organization&amp;nbsp;deleted Successfully" style="text;html=1;strokeColor=none;fillColor=none;align=center;verticalAlign=middle;whiteSpace=wrap;rounded=0;" parent="AjBO_0sVAM2gwfkVPcpk-1" vertex="1">
          <mxGeometry x="210" y="710" width="195" height="30" as="geometry" />
        </mxCell>
        <mxCell id="AjBO_0sVAM2gwfkVPcpk-116" value="" style="endArrow=none;dashed=1;html=1;rounded=0;" parent="AjBO_0sVAM2gwfkVPcpk-1" edge="1">
          <mxGeometry width="50" height="50" relative="1" as="geometry">
            <mxPoint x="205" y="840" as="sourcePoint" />
            <mxPoint x="205" y="730" as="targetPoint" />
          </mxGeometry>
        </mxCell>
        <mxCell id="AjBO_0sVAM2gwfkVPcpk-117" value="" style="endArrow=classic;html=1;rounded=0;" parent="AjBO_0sVAM2gwfkVPcpk-1" edge="1">
          <mxGeometry width="50" height="50" relative="1" as="geometry">
            <mxPoint x="205" y="790" as="sourcePoint" />
            <mxPoint x="55" y="790" as="targetPoint" />
          </mxGeometry>
        </mxCell>
        <mxCell id="AjBO_0sVAM2gwfkVPcpk-118" value="Response" style="text;html=1;strokeColor=none;fillColor=none;align=center;verticalAlign=middle;whiteSpace=wrap;rounded=0;" parent="AjBO_0sVAM2gwfkVPcpk-1" vertex="1">
          <mxGeometry x="100" y="760" width="60" height="30" as="geometry" />
        </mxCell>
      </root>
    </mxGraphModel>
  </diagram>
  <diagram id="Nf-b2lx0hoteGw1rFH9A" name="API Gateway">
    <mxGraphModel dx="1591" dy="798" grid="1" gridSize="10" guides="1" tooltips="1" connect="1" arrows="1" fold="1" page="1" pageScale="1" pageWidth="850" pageHeight="1100" math="0" shadow="0">
      <root>
        <mxCell id="0" />
        <mxCell id="1" parent="0" />
        <mxCell id="56N-d8ncjY4L58sj5ecY-3" value="&lt;font style=&quot;font-size: 14px;&quot;&gt;API&lt;br&gt;Gateway&lt;/font&gt;" style="rounded=0;whiteSpace=wrap;html=1;direction=south;" parent="1" vertex="1">
          <mxGeometry x="220" y="140" width="100" height="320" as="geometry" />
        </mxCell>
        <mxCell id="PbLyIz1_jBq3WUduHR56-1" value="Actor" style="shape=umlActor;verticalLabelPosition=bottom;verticalAlign=top;html=1;outlineConnect=0;" vertex="1" parent="1">
          <mxGeometry x="40" y="60" width="30" height="60" as="geometry" />
        </mxCell>
        <mxCell id="HvX7_jnhkKtPj7gmnX2b-1" value="Client - Postman" style="text;html=1;strokeColor=none;fillColor=none;align=center;verticalAlign=middle;whiteSpace=wrap;rounded=0;" vertex="1" parent="1">
          <mxGeometry x="10" y="140" width="110" height="20" as="geometry" />
        </mxCell>
        <mxCell id="kjcRT-gNEF1YdhJ6nz9c-1" value="" style="endArrow=none;dashed=1;html=1;rounded=0;" edge="1" parent="1">
          <mxGeometry width="50" height="50" relative="1" as="geometry">
            <mxPoint x="55" y="810" as="sourcePoint" />
            <mxPoint x="54.5" y="160" as="targetPoint" />
          </mxGeometry>
        </mxCell>
        <mxCell id="TgS07_CsGxYYxaQeRru--1" value="Employee Service" style="rounded=1;whiteSpace=wrap;html=1;" vertex="1" parent="1">
          <mxGeometry x="540" y="160" width="120" height="60" as="geometry" />
        </mxCell>
        <mxCell id="TgS07_CsGxYYxaQeRru--2" value="Department Service" style="rounded=1;whiteSpace=wrap;html=1;" vertex="1" parent="1">
          <mxGeometry x="540" y="250" width="120" height="60" as="geometry" />
        </mxCell>
        <mxCell id="TgS07_CsGxYYxaQeRru--3" value="Organization Service" style="rounded=1;whiteSpace=wrap;html=1;" vertex="1" parent="1">
          <mxGeometry x="540" y="340" width="120" height="60" as="geometry" />
        </mxCell>
        <mxCell id="uaQDAj4qbVQlsF6VJeYw-2" value="" style="endArrow=classic;html=1;rounded=0;entryX=0;entryY=0.5;entryDx=0;entryDy=0;exitX=0.441;exitY=-0.02;exitDx=0;exitDy=0;exitPerimeter=0;" edge="1" parent="1" source="56N-d8ncjY4L58sj5ecY-3" target="TgS07_CsGxYYxaQeRru--2">
          <mxGeometry width="50" height="50" relative="1" as="geometry">
            <mxPoint x="400" y="310" as="sourcePoint" />
            <mxPoint x="450" y="260" as="targetPoint" />
          </mxGeometry>
        </mxCell>
        <mxCell id="uaQDAj4qbVQlsF6VJeYw-3" value="" style="endArrow=none;html=1;rounded=0;" edge="1" parent="1">
          <mxGeometry width="50" height="50" relative="1" as="geometry">
            <mxPoint x="425" y="370" as="sourcePoint" />
            <mxPoint x="425" y="190" as="targetPoint" />
          </mxGeometry>
        </mxCell>
        <mxCell id="uaQDAj4qbVQlsF6VJeYw-4" value="" style="endArrow=classic;html=1;rounded=0;entryX=0;entryY=0.5;entryDx=0;entryDy=0;" edge="1" parent="1" target="TgS07_CsGxYYxaQeRru--1">
          <mxGeometry width="50" height="50" relative="1" as="geometry">
            <mxPoint x="425" y="189.5" as="sourcePoint" />
            <mxPoint x="535" y="189.5" as="targetPoint" />
          </mxGeometry>
        </mxCell>
        <mxCell id="uaQDAj4qbVQlsF6VJeYw-5" value="" style="endArrow=classic;html=1;rounded=0;entryX=0;entryY=0.5;entryDx=0;entryDy=0;" edge="1" parent="1">
          <mxGeometry width="50" height="50" relative="1" as="geometry">
            <mxPoint x="425" y="370" as="sourcePoint" />
            <mxPoint x="540" y="370.5" as="targetPoint" />
          </mxGeometry>
        </mxCell>
        <mxCell id="uaQDAj4qbVQlsF6VJeYw-6" value="Another&lt;br&gt;Microservice" style="rounded=0;whiteSpace=wrap;html=1;" vertex="1" parent="1">
          <mxGeometry x="10" y="200" width="120" height="60" as="geometry" />
        </mxCell>
        <mxCell id="uaQDAj4qbVQlsF6VJeYw-9" value="" style="endArrow=classic;html=1;rounded=0;entryX=0.18;entryY=1.04;entryDx=0;entryDy=0;entryPerimeter=0;" edge="1" parent="1">
          <mxGeometry width="50" height="50" relative="1" as="geometry">
            <mxPoint x="54" y="359.5" as="sourcePoint" />
            <mxPoint x="220" y="359.9000000000001" as="targetPoint" />
          </mxGeometry>
        </mxCell>
        <mxCell id="uaQDAj4qbVQlsF6VJeYw-10" value="Request" style="text;html=1;strokeColor=none;fillColor=none;align=center;verticalAlign=middle;whiteSpace=wrap;rounded=0;" vertex="1" parent="1">
          <mxGeometry x="100" y="340" width="60" height="20" as="geometry" />
        </mxCell>
        <mxCell id="uaQDAj4qbVQlsF6VJeYw-12" value="" style="endArrow=none;dashed=1;html=1;rounded=0;entryX=1;entryY=0.6;entryDx=0;entryDy=0;entryPerimeter=0;" edge="1" parent="1">
          <mxGeometry width="50" height="50" relative="1" as="geometry">
            <mxPoint x="270" y="690" as="sourcePoint" />
            <mxPoint x="269.5" y="460" as="targetPoint" />
          </mxGeometry>
        </mxCell>
        <mxCell id="dwUonYu_wHnU8VBEe5dY-1" value="" style="endArrow=classic;html=1;rounded=0;" edge="1" parent="1">
          <mxGeometry width="50" height="50" relative="1" as="geometry">
            <mxPoint x="270" y="650" as="sourcePoint" />
            <mxPoint x="55" y="650" as="targetPoint" />
          </mxGeometry>
        </mxCell>
        <mxCell id="XVYp-tzZekLrgZZHm65V-1" value="Response" style="text;html=1;strokeColor=none;fillColor=none;align=center;verticalAlign=middle;whiteSpace=wrap;rounded=0;" vertex="1" parent="1">
          <mxGeometry x="100" y="620" width="60" height="30" as="geometry" />
        </mxCell>
        <mxCell id="5yYJbUagtP2cmVO7QoOO-1" value="re routing" style="text;html=1;strokeColor=none;fillColor=none;align=center;verticalAlign=middle;whiteSpace=wrap;rounded=0;" vertex="1" parent="1">
          <mxGeometry x="340" y="250" width="60" height="30" as="geometry" />
        </mxCell>
        <mxCell id="5yYJbUagtP2cmVO7QoOO-2" value="Service 1" style="text;html=1;strokeColor=none;fillColor=none;align=center;verticalAlign=middle;whiteSpace=wrap;rounded=0;" vertex="1" parent="1">
          <mxGeometry x="430" y="150" width="90" height="40" as="geometry" />
        </mxCell>
        <mxCell id="5yYJbUagtP2cmVO7QoOO-3" value="Service 2" style="text;html=1;strokeColor=none;fillColor=none;align=center;verticalAlign=middle;whiteSpace=wrap;rounded=0;" vertex="1" parent="1">
          <mxGeometry x="440" y="245" width="70" height="40" as="geometry" />
        </mxCell>
        <mxCell id="5yYJbUagtP2cmVO7QoOO-4" value="Service 3" style="text;html=1;strokeColor=none;fillColor=none;align=center;verticalAlign=middle;whiteSpace=wrap;rounded=0;" vertex="1" parent="1">
          <mxGeometry x="442.5" y="330" width="65" height="40" as="geometry" />
        </mxCell>
      </root>
    </mxGraphModel>
  </diagram>
</mxfile>
